<?xml version="1.0" encoding="UTF-8"?>
<svg enable-background="new 0 0 1000 1000" version="1.1" viewBox="0 0 1000 1000" xml:space="preserve" xmlns="http://www.w3.org/2000/svg">
<style type="text/css">
	.st0{fill-opacity:0;stroke:#7BE7F1;stroke-width:1.5;stroke-linejoin:round;stroke-miterlimit:2;}
	.st1{opacity:0.4;}
	.st2{fill:#4A24B7;}
	.st3{opacity:0.2;}
	.st4{fill:#37B5F4;}
	.st5{fill-opacity:0;stroke:#2833C0;stroke-width:2.5;stroke-miterlimit:5;}
	.st6{fill-opacity:0;stroke:#2833C0;stroke-width:2.7855;stroke-miterlimit:5;}
	.st7{filter:url(#d);}
	.st8{fill-opacity:0;stroke:url(#c);stroke-width:5;stroke-linecap:round;stroke-miterlimit:10;}
	.st9{mask:url(#a);}
	.st10{fill:url(#b);}
	.st11{fill-opacity:0;stroke:#7CE7F2;stroke-width:1.5;stroke-linejoin:round;stroke-miterlimit:2;}
	.st12{fill-opacity:0;stroke:#EDCC45;stroke-width:3;stroke-linecap:round;stroke-linejoin:round;stroke-miterlimit:2;}
	.st13{fill-opacity:0;stroke:#D852EF;stroke-width:3;stroke-linecap:round;stroke-linejoin:round;stroke-miterlimit:2;}
	.st14{fill-opacity:0;stroke:#37B5F4;stroke-width:3;stroke-linecap:round;stroke-linejoin:round;stroke-miterlimit:2;}
	.st15{fill-opacity:0;stroke:#4CF2E2;stroke-width:3;stroke-linecap:round;stroke-linejoin:round;stroke-miterlimit:2;}
	.st16{fill-opacity:0;stroke:#4CF2E2;stroke-width:4.25;stroke-miterlimit:5;}
	.st17{fill-opacity:0;stroke:#EDCC45;stroke-width:4.35;stroke-miterlimit:5;}
	.st18{fill-opacity:0;stroke:#D852EF;stroke-width:4.5;stroke-miterlimit:5;}
	.st19{fill-opacity:0;stroke:#7CE7F2;stroke-width:0.5;stroke-linejoin:round;stroke-miterlimit:2;}
	.st20{fill-opacity:0;stroke:#D852EF;stroke-width:0.9285;stroke-linecap:round;stroke-miterlimit:5;}
	.st21{fill-opacity:0;stroke:#4CF2E2;stroke-width:5.25;stroke-miterlimit:5;}
	.st22{fill-opacity:0;stroke:#EDCC45;stroke-width:5.35;stroke-miterlimit:5;}
	.st23{fill-opacity:0;stroke:#D852EF;stroke-width:5.5;stroke-miterlimit:5;}
	.st24{fill-opacity:0;stroke:#7BE7F1;stroke-width:2;stroke-linejoin:round;stroke-miterlimit:2;}
	.st25{fill:#337BF1;}
	.st26{fill:#F4CCB8;}
	.st27{fill:#246DD7;}
	.st28{fill:#22283E;}
	.st29{fill:#ECCC45;}
	.st30{fill:#E1A233;}
	.st31{fill:#FFFFFF;}
	.st32{fill:#D2AA9B;}
	.st33{fill:#4BF1E1;}
	.st34{fill-opacity:0;stroke:#4BF1E1;stroke-width:0.4645;stroke-linejoin:round;stroke-miterlimit:2;}
	.st35{fill-opacity:0;stroke:#7CE7F2;stroke-width:2.5;stroke-linejoin:round;stroke-miterlimit:2;stroke-opacity:0.4;}
	.st36{fill:#145284;}
	.st37{fill:#4389EE;}
	.st38{fill:#1D64BB;}
	.st39{fill:#5ADCE1;}
	.st40{fill:#7BE7F1;}
	.st41{fill-opacity:0;stroke:#7BE7F1;stroke-width:0.6965;stroke-miterlimit:5;}
	.st42{fill-opacity:0;stroke:#145284;stroke-width:0.9285;stroke-linecap:round;stroke-miterlimit:5;}
	.st43{fill-opacity:0;stroke:#337BF1;stroke-width:0.6965;stroke-miterlimit:5;}
	.st44{fill-opacity:0;stroke:#7BE7F1;stroke-width:0.4645;stroke-miterlimit:5;}
	.st45{fill-opacity:0;stroke:#337BF1;stroke-width:0.4645;stroke-miterlimit:5;}
	.st46{fill-opacity:0;stroke:#337BF1;stroke-width:0.4645;stroke-linecap:round;stroke-miterlimit:5;}
</style>
<g transform="translate(215.97 443.65)">
	<g transform="translate(224.88 138.29)">
		<path class="st0" d="m-187.3-355.2l-66.5 38.4c-2 1.1-3.5 3.9-3.5 6.1l0.2 82c0 2.3 1.6 3.2 3.6 2l66.5-38.4c2-1.1 3.5-3.9 3.5-6.1l-0.2-82c-0.1-2.3-1.7-3.2-3.6-2z"/>
	</g>
</g>
<g transform="translate(215.97 443.65)">
	<g transform="translate(52.433 351.65)">
		<path class="st0" d="m-115.4-436l-37.7 21.8c-2 1.1-3.5 3.9-3.5 6.1l0.1 46.7c0 2.3 1.6 3.2 3.6 2l37.7-21.8c2-1.1 3.5-3.9 3.5-6.1l-0.1-46.7c-0.1-2.2-1.7-3.1-3.6-2z"/>
	</g>
</g>
<g transform="translate(215.97 443.65)">
	<g transform="translate(1383.2 217.77)">
		<path class="st0" d="m-782.7-344.4l-33.6-19.4c-2-1.1-3.6-0.2-3.6 2l-0.1 38.6c0 2.3 1.6 5 3.5 6.1l33.6 19.4c2 1.1 3.6 0.2 3.6-2l0.1-38.6c0-2.2-1.5-5-3.5-6.1z"/>
	</g>
</g>
<g class="st1" transform="translate(215.97 443.65)">
	<g transform="translate(538.94 277.34)">
		<path class="st2" d="m-302.7-491.2l-149.9 86.6c-2 1.1-3.5 3.9-3.5 6.1l0.5 166.8c0 2.2 1.6 3.2 3.6 2l149.9-86.6c2-1.1 3.5-3.9 3.5-6.1l-0.5-166.8c-0.1-2.3-1.7-3.2-3.6-2z"/>
	</g>
</g>
<g class="st1" transform="translate(215.97 443.65)">
	<g transform="translate(185.87 387.15)">
		<path class="st2" d="m-182.4-453.3l-37.2 21.5c-2 1.1-3.5 3.9-3.5 6.1l0.1 46.1c0 2.3 1.6 3.2 3.6 2l37.2-21.5c2-1.1 3.5-3.9 3.5-6.1l-0.1-46.1c-0.1-2.2-1.6-3.1-3.6-2z"/>
	</g>
</g>
<g class="st1" transform="translate(236.97 473.65)">
	<g transform="translate(1077.4 187.83)">
		<path class="st2" d="m-614.6-352.4l-84.8-49c-2-1.1-3.6-0.2-3.6 2l-0.2 84c0 2.3 1.6 5 3.5 6.1l84.8 49c2 1.1 3.6 0.2 3.6-2l0.2-84c0-2.2-1.6-4.9-3.5-6.1z"/>
	</g>
</g>
<g class="st1" transform="translate(222.97 450.65)">
	<g transform="translate(1237 138.29)">
		<path class="st2" d="m-713.1-308.1l-33.6-19.4c-2-1.1-3.6-0.2-3.6 2l-0.1 38.6c0 2.3 1.6 5 3.5 6.1l33.6 19.4c2 1.1 3.6 0.2 3.6-2l0.1-38.6c0-2.3-1.6-5-3.5-6.1z"/>
	</g>
</g>
<g class="st3" transform="translate(211.97 441.65)">
	<g transform="translate(250.91 155.94)">
		<path class="st4" d="m-198.3-363.1l-66.5 38.4c-2 1.1-3.5 3.9-3.5 6.1l0.2 82c0 2.3 1.6 3.2 3.6 2l66.5-38.4c2-1.1 3.5-3.9 3.5-6.1l-0.2-82c-0.1-2.2-1.7-3.1-3.6-2z"/>
	</g>
</g>
<g class="st3" transform="translate(214.47 442.35)">
	<g transform="translate(68.284 365.86)">
		<path class="st4" d="m-122.6-442.4l-37.7 21.8c-2 1.1-3.5 3.9-3.5 6.1l0.1 46.7c0 2.3 1.6 3.2 3.6 2l37.7-21.8c2-1.1 3.5-3.9 3.5-6.1l-0.1-46.7c-0.1-2.2-1.7-3.2-3.6-2z"/>
	</g>
</g>
<g class="st3" transform="translate(215.97 443.65)">
	<g transform="translate(1368.2 227.23)">
		<path class="st4" d="m-775.2-349.1l-33.6-19.4c-2-1.1-3.6-0.2-3.6 2l-0.1 38.6c0 2.3 1.6 5 3.5 6.1l33.6 19.4c2 1.1 3.6 0.2 3.6-2l0.1-38.6c0-2.2-1.6-5-3.5-6.1z"/>
	</g>
</g>
<g>
	<g transform="translate(351.53 933.69)">
		<g transform="translate(70.528 298.77)">
			<path class="st5" d="m-234.6-602.5l47.1-27.5"/>
		</g>
		<g transform="translate(49.021 286.17)">
			<path class="st5" d="m-223.5-596.3l46.5-27.2"/>
		</g>
		<g transform="translate(546.71 412.68)">
			<path class="st5" d="m-501.2-690l58.6 33.6 45.6-26.5"/>
		</g>
		<g transform="translate(547.19 452.62)">
			<path class="st5" d="m-524.4-716.7l82 47.1 68.1-39.7"/>
		</g>
		<g transform="translate(518.26 67.851)">
			<path class="st5" d="m-416-528.4l-32.4 18.9 28.8 16.6-34.2 19.8"/>
		</g>
		<g transform="translate(610.2 103.22)">
			<path class="st5" d="m-490.4-553.7l-18.3 10.6 55.5 31.8-48.3 28"/>
		</g>
		<g transform="translate(836.87 91.97)">
			<path class="st5" d="m-626.3-531.4l64.2 37.1"/>
		</g>
		<g transform="translate(906.31 48.473)">
			<path class="st5" d="m-675.3-499.7l23.6 13.6 28.6-16.6 40.6 23.4"/>
		</g>
	</g>
	<g transform="translate(440.2 457.86)">
		<g transform="translate(189.86 440.85)">
			<path class="st6" d="m-367-344.8l-36-22.5v-86.3l175.9-100.3"/>
		</g>
		<g transform="translate(666.71 82.128)">
			<path class="st6" d="m-600.7-292.3l19.3-11.8 75.2 43.2v25"/>
		</g>
		<g transform="translate(457.19 384.16)">
			<path class="st6" d="m-442.6-399.6l-12.2-6.1v-36.7"/>
		</g>
		<g transform="translate(901.57 335.36)">
			<path class="st6" d="m-612.6-411.3l-66.2-40.7v83.5l-50.3 27.4"/>
		</g>
		<g transform="translate(1114.6 518.31)">
			<path class="st6" d="m-753.3-517.2v23.4l-23.6-13v34.7l-24.5 13.2"/>
		</g>
	</g>
</g>
<defs>
	<filter id="d" x="159" y="615.8" width="24.1" height="24.1" filterUnits="userSpaceOnUse">
		<feColorMatrix values="1 0 0 0 0  0 1 0 0 0  0 0 1 0 0  0 0 0 1 0"/>
	</filter>
</defs>
<mask id="a" x="159" y="615.8" width="24.1" height="24.1" maskUnits="userSpaceOnUse">
	<g class="st7" transform="translate(1e3 1e3)">
		<g>
				<linearGradient id="c" x1="-1649" x2="-1551" y1="-217.86" y2="-217.86" gradientTransform="matrix(1 0 0 -1 1e3 2)" gradientUnits="userSpaceOnUse">
				<stop stop-color="#2833C0" offset="0"/>
				<stop stop-color="#3A93D1" offset=".5"/>
				<stop stop-color="#4CF2E2" offset="1"/>
			</linearGradient>
			<path class="st8" d="m-646 247.1l93-54.5"/>
		</g>
	</g>
</mask>
<g class="st9">
		<g transform="matrix(-.33618 .24425 -.24425 -.33618 166.66 1943)">
		<g transform="translate(-1314 1090)">
				<linearGradient id="b" x1="406.91" x2="509.91" y1="1069.8" y2="1071.8" gradientTransform="matrix(-.1681 -.1221 -.1221 .1681 -384.95 1333.6)" gradientUnits="userSpaceOnUse">
				<stop stop-color="#4CF2E2" offset="0"/>
				<stop stop-color="#3A93D1" offset=".5"/>
				<stop stop-color="#2833C0" offset="1"/>
			</linearGradient>
			<path class="st10" d="m-555 1435.3c16 0 29 13 29 29s-13 29-29 29-29-13-29-29 13-29 29-29z"/>
		</g>
	</g>
</g>
<g>
	<g>
		<g transform="translate(1e3 1e3)">
			<g>
				<path class="st11" d="m-540.9-649.9l-20.2 11.7c-1.8 1.1-3.3 3.6-3.3 5.7l0.1 32.5c0 2.1 1.5 2.9 3.3 1.9l20.2-11.7c1.8-1.1 3.3-3.6 3.3-5.7l-0.1-32.5c0-2.1-1.5-3-3.3-1.9"/>
			</g>
		</g>
	</g>
	<g>
		<g class="st3" transform="translate(1e3 1e3)">
			<g>
				<path class="st4" d="m-554.5-696.8l-39.8 23c-1.8 1.1-3.3 3.6-3.3 5.7l0.2 68.2c0 2.1 1.5 2.9 3.3 1.9l39.8-23c1.8-1 3.3-3.6 3.3-5.7l-0.2-68.2c0-2.1-1.4-3-3.3-1.9"/>
			</g>
		</g>
	</g>
	<g>
		<g transform="translate(1e3 1e3)">
			<g>
				<path class="st11" d="m-554.5-696.8l-39.8 23c-1.8 1.1-3.3 3.6-3.3 5.7l0.2 68.2c0 2.1 1.5 2.9 3.3 1.9l39.8-23c1.8-1 3.3-3.6 3.3-5.7l-0.2-68.2c0-2.1-1.4-3-3.3-1.9"/>
			</g>
		</g>
	</g>
	<g transform="translate(1e3 1e3)">
		<g>
			<path class="st12" d="m-588.8-664.7s13.9-8 22.4-12.9"/>
		</g>
	</g>
	<g transform="translate(1e3 1e3)">
		<g>
			<path class="st13" d="m-588.8-656.8s26.4-15.2 28.8-16.6"/>
		</g>
	</g>
	<g transform="translate(1e3 1e3)">
		<g>
			<path class="st14" d="m-588.8-647.6l15.2-8.7"/>
		</g>
	</g>
	<g transform="translate(1e3 1e3)">
		<g>
			<path class="st15" d="m-588.8-613.5l13.7-7.8"/>
		</g>
	</g>
	<g transform="translate(1e3 1e3)">
		<g>
			<path class="st14" d="m-588.8-637.3l21.4-12.3"/>
		</g>
	</g>
	<g>
		<g class="st3" transform="translate(1e3 1e3)">
			<g>
				<path class="st4" d="m-498-763.2l-26.6 15.4c-1.8 1.1-3.3 3.6-3.3 5.7l0.1 45.8c0 2.1 1.5 2.9 3.3 1.9l26.6-15.4c1.8-1.1 3.3-3.6 3.3-5.7l-0.1-45.8c0-2.1-1.5-2.9-3.3-1.9"/>
			</g>
		</g>
	</g>
	<g>
		<g transform="translate(1e3 1e3)">
			<g>
				<path class="st11" d="m-498-763.2l-26.6 15.4c-1.8 1.1-3.3 3.6-3.3 5.7l0.1 45.8c0 2.1 1.5 2.9 3.3 1.9l26.6-15.4c1.8-1.1 3.3-3.6 3.3-5.7l-0.1-45.8c0-2.1-1.5-2.9-3.3-1.9"/>
			</g>
		</g>
	</g>
	<g>
		<g transform="translate(1e3 1e3)">
			<g>
				<path class="st16" d="m-514.8-742.9c-2.9 5-3.1 10.4-0.4 12s7.3-1.3 10.2-6.3 3.1-10.4 0.4-12c-2.8-1.6-7.3 1.3-10.2 6.3z"/>
			</g>
		</g>
		<g transform="translate(1e3 1e3)">
			<g>
				<path class="st17" d="m-515.2-730.9c2.7 1.6 7.3-1.3 10.2-6.3s3.1-10.4 0.4-12c-1.8-1-4.4-0.1-6.8 2"/>
			</g>
		</g>
		<g transform="translate(1e3 1e3)">
			<g>
				<path class="st18" d="m-517.1-735.7c-0.1 2.2 0.6 3.9 1.9 4.7 1.4 0.8 3.2 0.5 5.1-0.7"/>
			</g>
		</g>
	</g>
	<g transform="translate(1e3 1e3)">
		<g>
			<path class="st14" d="m-520.6-717.5l18.3-10.5"/>
		</g>
	</g>
	<g transform="translate(1e3 1e3)">
		<g>
			<path class="st14" d="m-520.6-710.9l11.7-6.7"/>
		</g>
	</g>
	<g transform="translate(1e3 1e3)">
		<g>
			<path class="st14" d="m-503.7-713.6l4.4-2.5"/>
		</g>
	</g>
	<g>
		<g class="st3" transform="translate(1e3 1e3)">
			<g>
				<path class="st4" d="m-366.2-677.3l-66-38.1c-1.8-1.1-3.3-0.2-3.3 1.9l-0.2 86.7c0 2.1 1.5 4.6 3.3 5.7l66 38.1c1.8 1.1 3.3 0.2 3.3-1.9l0.2-86.7c0-2.1-1.5-4.7-3.3-5.7"/>
			</g>
		</g>
	</g>
	<g>
		<g transform="translate(1e3 1e3)">
			<g>
				<path class="st11" d="m-366.2-677.3l-66-38.1c-1.8-1.1-3.3-0.2-3.3 1.9l-0.2 86.7c0 2.1 1.5 4.6 3.3 5.7l66 38.1c1.8 1.1 3.3 0.2 3.3-1.9l0.2-86.7c0-2.1-1.5-4.7-3.3-5.7"/>
			</g>
		</g>
	</g>
	<g transform="translate(1e3 1e3)">
		<g>
			<path class="st19" d="m-378.8-653.4l-48.6-28.1-0.1 49.9 48.6 28.1 0.1-49.9"/>
		</g>
	</g>
	<g transform="translate(1e3 1e3)">
		<g>
			<path class="st12" d="m-398.5-681.5c-11.7-6.7-27.7-15.9-27.7-15.9"/>
		</g>
	</g>
	<g transform="translate(1e3 1e3)">
		<g>
			<path class="st13" d="m-412.3-681c-5.7-3.3-13.9-8-13.9-8"/>
		</g>
	</g>
	<g transform="translate(1e3 1e3)">
		<g>
			<path class="st14" d="m-371.7-598.4v-33.6"/>
		</g>
	</g>
	<g transform="translate(1e3 1e3)">
		<g>
			<path class="st20" d="m-426.4-630.9s3.1-25.3 9.2-21.7c6 3.6 3.6 19.5 8.7 22.5 5 3 4-28.5 10.4-25.2 3.9 2 2.5 10.6 7.2 13.5 4.5 2.8 10.2-19.3 10.2-19.3"/>
		</g>
	</g>
	<g>
		<g>
			<g class="st3" transform="translate(1e3 1e3)">
				<g>
					<path class="st4" d="m-183.7-597.4l-81.7-47.2c-1.8-1.1-3.3-0.2-3.3 1.9l-0.2 55.7c0 2.1 1.5 4.6 3.3 5.7l81.7 47.2c1.8 1.1 3.3 0.2 3.3-1.9l0.2-55.7c0-2.1-1.4-4.6-3.3-5.7"/>
				</g>
			</g>
			<g transform="translate(1e3 1e3)">
				<g>
					<path class="st11" d="m-183.7-597.4l-81.7-47.2c-1.8-1.1-3.3-0.2-3.3 1.9l-0.2 55.7c0 2.1 1.5 4.6 3.3 5.7l81.7 47.2c1.8 1.1 3.3 0.2 3.3-1.9l0.2-55.7c0-2.1-1.4-4.6-3.3-5.7"/>
				</g>
			</g>
		</g>
	</g>
	<g>
		<g transform="translate(1e3 1e3)">
			<g>
				<path class="st19" d="m-238.1-619.5l-21.6-12.5-0.1 45.2 21.6 12.4 0.1-45.1"/>
			</g>
		</g>
	</g>
	<g>
		<g transform="translate(1e3 1e3)">
			<g>
				<path class="st21" d="m-192.6-573.9c4.4 7.7 4.7 15.8 0.6 18.2s-11-1.9-15.5-9.6c-4.4-7.7-4.7-15.8-0.6-18.2 4.2-2.4 11.1 1.9 15.5 9.6z"/>
			</g>
		</g>
		<g transform="translate(1e3 1e3)">
			<g>
				<path class="st22" d="m-195.7-578.4c1.1 1.3 2.2 2.8 3.2 4.4 4.4 7.7 4.7 15.8 0.6 18.2-3.6 2.1-9.4-1-13.8-6.9"/>
			</g>
		</g>
		<g transform="translate(1e3 1e3)">
			<g>
				<path class="st23" d="m-203.7-583.9c3.7 0.9 8 4.6 11.1 10 3.5 6 4.4 12.3 2.6 15.9"/>
			</g>
		</g>
	</g>
	<g transform="translate(1e3 1e3)">
		<g>
			<path class="st14" d="m-253.3-589.3v-7.1"/>
		</g>
	</g>
	<g transform="translate(1e3 1e3)">
		<g>
			<path class="st14" d="m-245.6-584.6v-20.5"/>
		</g>
	</g>
	<g transform="translate(1e3 1e3)">
		<g>
			<path class="st13" d="m-218.3-590.7l-13.5-7.8"/>
		</g>
	</g>
	<g transform="translate(1e3 1e3)">
		<g>
			<path class="st13" d="m-218.3-582.4s-4.3-2.5-8.1-4.7"/>
		</g>
	</g>
	<g transform="translate(1e3 1e3)">
		<g>
			<path class="st13" d="m-218.3-574.2s-1.8-1-4.1-2.3"/>
		</g>
	</g>
	<g transform="translate(1e3 1e3)">
		<g>
			<path class="st14" d="m-190.2-587.8l-41.9-24.1"/>
		</g>
	</g>
</g>
<g transform="matrix(.5 0 0 .5 99.49 384.61)">
	<g transform="translate(122.3 525.49)">
		<path class="st24" d="m108.6-3.8l-102.4-59.1c-3.6-2.1-9.5-2.1-13.1 0l-101.8 59.1c-3.6 2.1-3.6 5.5 0 7.6l102.5 59.1c3.6 2.1 9.5 2.1 13.1 0l101.8-59.1c3.6-2.1 3.6-5.5-0.1-7.6z"/>
	</g>
</g>
<g transform="matrix(.5 0 0 .5 99.49 384.61)">
	<g transform="translate(1393.6 489.04)">
		<path class="st24" d="m34.4-3.8l-27.9-16.2c-3.6-2.1-9.5-2.1-13.1 0l-27.9 16.2c-3.6 2.1-3.6 5.5 0 7.6l28 16.2c3.6 2.1 9.5 2.1 13.1 0l27.9-16.2c3.6-2.1 3.6-5.5-0.1-7.6z"/>
	</g>
</g>
<g transform="matrix(.5 0 0 .5 99.49 384.61)">
	<g transform="translate(1511.4 452.83)">
		<path class="st24" d="m71.5-3.8l-65.2-37.7c-3.6-2.1-9.5-2.1-13.1 0l-64.8 37.7c-3.6 2.1-3.6 5.5 0 7.6l65.2 37.7c3.6 2.1 9.5 2.1 13.1 0l64.9-37.7c3.6-2.1 3.6-5.5-0.1-7.6z"/>
	</g>
</g>
<g transform="matrix(.5 0 0 .5 99.49 384.61)">
	<g transform="translate(928.07 542.66)">
		<path class="st24" d="m144.1-3.8l-138-79.7c-3.6-2.1-9.5-2.1-13.1 0l-137.1 79.7c-3.6 2.1-3.6 5.5 0 7.6l138 79.7c3.6 2.1 9.5 2.1 13.1 0l137.1-79.7c3.7-2.1 3.6-5.5 0-7.6z"/>
	</g>
</g>
<g transform="matrix(.5 0 0 .5 99.49 384.61)">
	<g transform="translate(1203.8 358.81)">
		<path class="st24" d="m256.4-3.8l-250.7-144.7c-3.6-2.1-9.5-2.1-13.1 0l-249 144.7c-3.6 2.1-3.6 5.5 0 7.6l250.7 144.7c3.6 2.1 9.5 2.1 13.1 0l249-144.7c3.6-2.1 3.6-5.5 0-7.6z"/>
	</g>
</g>
<g transform="matrix(.5 0 0 .5 99.491 384.61)">
	<g transform="translate(853.24 147.87)">
		<path class="st24" d="m188.4-3.8l-182.5-105.4c-3.6-2.1-9.5-2.1-13.1 0l-181.3 105.4c-3.6 2.1-3.6 5.5 0 7.6l182.5 105.4c3.6 2.1 9.5 2.1 13.1 0l181.4-105.4c3.6-2.1 3.6-5.5-0.1-7.6z"/>
	</g>
</g>
<g transform="matrix(.5 0 0 .5 99.491 384.61)">
	<g transform="translate(524.85 404.07)">
		<path class="st24" d="m303.6-3.8l-298-172.1c-3.6-2.1-9.5-2.1-13.1 0l-296.2 172.1c-3.6 2.1-3.6 5.5 0 7.6l298.1 172.1c3.6 2.1 9.5 2.1 13.1 0l296.2-172.1c3.6-2.1 3.6-5.5-0.1-7.6z"/>
	</g>
</g>
<g class="st3" transform="matrix(.5 0 0 .5 99.49 384.61)">
	<g transform="translate(1393.6 474.18)">
		<path class="st4" d="m34.5-3.8l-28-16.2c-3.6-2.1-9.5-2.1-13.1 0l-27.9 16.2c-3.6 2.1-3.6 5.5 0 7.6l28 16.2c3.6 2.1 9.5 2.1 13.1 0l27.9-16.2c3.6-2.1 3.6-5.5 0-7.6z"/>
	</g>
</g>
<g class="st3" transform="matrix(.5 0 0 .5 99.49 384.61)">
	<g transform="translate(1511.4 434.25)">
		<path class="st4" d="m71.5-3.8l-65.2-37.7c-3.6-2.1-9.5-2.1-13.1 0l-64.8 37.7c-3.6 2.1-3.6 5.5 0 7.6l65.2 37.7c3.6 2.1 9.5 2.1 13.1 0l64.9-37.7c3.6-2.1 3.6-5.5-0.1-7.6z"/>
	</g>
</g>
<g class="st3" transform="matrix(.5 0 0 .5 99.49 384.61)">
	<g transform="translate(122.3 503.2)">
		<path class="st4" d="m108.6-3.8l-102.4-59.1c-3.6-2.1-9.5-2.1-13.1 0l-101.8 59.1c-3.6 2.1-3.6 5.5 0 7.6l102.5 59.1c3.6 2.1 9.5 2.1 13.1 0l101.8-59.1c3.6-2.1 3.6-5.5-0.1-7.6z"/>
	</g>
</g>
<g class="st3" transform="matrix(.5 0 0 .5 99.49 388.73)">
	<g transform="translate(928.07 522.24)">
		<path class="st4" d="m144.1-3.8l-138-79.7c-3.6-2.1-9.5-2.1-13.1 0l-137.1 79.7c-3.6 2.1-3.6 5.5 0 7.6l138 79.7c3.6 2.1 9.5 2.1 13.1 0l137.1-79.7c3.7-2.1 3.6-5.5 0-7.6z"/>
	</g>
</g>
<g class="st3" transform="matrix(.5 0 0 .5 99.491 385.32)">
	<g transform="translate(1203.8 321.66)">
		<path class="st4" d="m256.4-3.8l-250.7-144.7c-3.6-2.1-9.5-2.1-13.1 0l-249 144.7c-3.6 2.1-3.6 5.5 0 7.6l250.7 144.7c3.6 2.1 9.5 2.1 13.1 0l249-144.7c3.6-2.1 3.6-5.5 0-7.6z"/>
	</g>
</g>
<g class="st3" transform="matrix(.5 0 0 .5 99.491 387.08)">
	<g transform="translate(853.24 110.73)">
		<path class="st4" d="M188.4-3.8L6-109.2c-3.6-2.1-9.5-2.1-13.1,0L-188.5-3.8c-3.6,2.1-3.6,5.5,0,7.6L-6,109.2    c3.6,2.1,9.5,2.1,13.1,0L188.5,3.8C192.1,1.7,192.1-1.7,188.4-3.8z"/>
	</g>
</g>
<g class="st3" transform="matrix(.5 0 0 .5 99.491 384.61)">
	<g transform="translate(524.84 346.74)">
		<path class="st4" d="m303.6-3.8l-298-172.1c-3.6-2.1-9.5-2.1-13.1 0l-296.2 172.1c-3.6 2.1-3.6 5.5 0 7.6l298.1 172.1c3.6 2.1 9.5 2.1 13.1 0l296.2-172.1c3.6-2.1 3.6-5.5-0.1-7.6z"/>
	</g>
</g>
<g transform="matrix(.5 0 0 .5 7.6294e-6 2.4653)">
		<g transform="matrix(.9993 .037446 -.037446 .9993 1049.2 672.15)">
		<g transform="translate(19.893 28.987)">
			<path class="st25" d="m19.6 18.9c0 5.4-4.4 9.8-9.8 9.8-2.4 0-4.6-0.9-6.4-2.3l-0.1-0.1c-0.1 0-0.1-0.1-0.2-0.2l-0.2-0.2c-1.9-1.7-7.3-6.6-13.9-20.3-3.2-6.7-8.6-14.7-8.6-21.7v-0.1-0.6c0.3-6.3 3.1-11.9 9.4-11.9 4.4 0 8.8 3.4 10.8 6.9 0.1 0.2 0.5 1.1 1.2 2.6 3.5 8.1 15.7 31.1 16.6 33.3 0.8 1.5 1.2 3.1 1.2 4.8z"/>
		</g>
	</g>
		<g transform="matrix(.99997 -.0083251 .0083251 .99997 1067.8 682.88)">
		<g transform="translate(14.992 27.974)">
			<path class="st25" d="m-4.4 20.3c6.7 0.2 13.9-17.9 15.6-25.8 1.6-8 3.6-11.3 0-12.7-3.6-1.3-7.4-2.3-11.3 6.2-3.9 8.4-14.3 16-14.5 21.1-0.1 5.1 1.4 11.1 10.2 11.2z"/>
		</g>
		<g transform="translate(19.251 8.321)">
			<path class="st26" d="m-5-8.1c7.3 1.5 10.8 4 12.4 5.9 1.6 1.8 3 3.4 1.2 5.7-1.7 2.2-1.7 4.2-5.1 4.4s-6.6-1-9.5-2.8 0.2-5.6-1.3-7.7c-3.1-4.2 2.3-5.5 2.3-5.5z"/>
		</g>
	</g>
	<g transform="translate(1011.9 646.21)">
		<g transform="translate(46.187 157.42)">
			<path class="st27" d="m-10.9-57.1c6.7-4.9 20.9-7.2 24.5 2.7s3 50.4 2.4 60.6-1.1 42.6-1.9 48.6-9.1 9.5-16.9 8.4c-5-0.7-2.6-9.4-3.2-31-0.5-14.4-1.5-24.5-1.5-24.5s-2.3-27.3-6.1-39.9c-2.7-9-3.6-20.2 2.7-24.9z"/>
		</g>
		<g transform="translate(27.722 169.9)">
			<path class="st25" d="m-13.5-69.1c7.1-4.6 29.6-5 32.4 5.5s-6.6 54.7-9.5 68.9c-2.2 10.4-3 45.5-6.6 58.2-1.7 6.1-10.4 10.6-16.3 5.4s-5.6-14.5-4.5-36.2c0.7-14.9 2-32 2-32s-0.8-24.5-3-38c-2.6-16.3-1.3-27.5 5.5-31.8z"/>
		</g>
		<g transform="translate(34.4 107.43)">
			<path class="st28" d="m-26.7-7.1v11.7s4.5 3.8 14.3 5.1c8.5 1.2 18.4 0.1 25.8-1.7 7.8-1.8 13.3-6.3 13.3-6.3v-12.6s-11.7 2.7-27 3.1c-15.4 0.4-26.4 0.7-26.4 0.7z"/>
		</g>
		<g transform="translate(25.321 67.101)">
			<path class="st29" d="m25.1 40.9c-5.3 1.9-11.9 3.5-19.1 3.3-13.7-0.4-22.1-2.6-23.2-7.7-0.4-1.9-0.5-4.4-0.4-7.2 0-2.1 0.1-4.5 0.1-7 0-2.1 0.1-4.4 0-6.7 0-1.1-0.1-2.2-0.2-3.3-0.1-1.4-0.3-2.7-0.6-4-1.8-7.9-6.8-13.9-6.6-27.2 0.3-16.2 5.6-15.9 20.2-24 1.4-0.8 3-1.3 4.8-1.5 5.4 4.8 14.4 13.1 16.4 18.3 0.4 1 0.8 2.2 1.2 3.6 0.1 0.5 0.3 1 0.4 1.5v0.1l0.3 1.1c0.9 3.6 1.9 7.8 2.7 12.1 0.1 0.4 0.2 0.9 0.2 1.3s0.1 0.9 0.2 1.3c0.4 0.4 0.5 0.8 0.5 1.3 0.3 1.4 0.5 2.9 0.7 4.2 0.1 0.6 0.2 1.3 0.3 1.9 0.3 2.4 0.6 4.6 0.8 6.5 0 0.2 0 0.5 0.1 0.7 0 0.3 0.1 0.7 0.1 1.1s0.1 0.8 0.1 1.2 0.1 0.8 0.1 1.2c0.1 1 0.1 2.1 0.2 3.3 0 0.4 0 0.9 0.1 1.3 0 0.5 0.1 1 0.1 1.6 0 1.1 0.1 2.2 0.1 3.4 0.1 1.2 0.1 2.5 0.1 3.7 0.1 1.2 0.1 2.5 0.1 3.8v0.5c0 1.3 0.1 2.5 0.1 3.8 0 2.3 0 4.5 0.1 6.5z"/>
		</g>
		<g transform="translate(43.856 64.826)">
			<path class="st30" d="m16.8 38c-1.9 1.4-5.5 3.4-10.3 5.2-0.1-3.2-0.1-7-0.3-10.9l-0.3-7.5c-0.1-2.2-0.2-4.3-0.3-6.3-0.1-2.7-0.3-5.1-0.4-6.8 0-0.2 0-0.4-0.1-0.7-0.7-9.4-4-27.4-7-34.8-2.1-5.2-11-13.6-16.4-18.3 7.1-1 16.4 1.3 21 3 5.8 2.1 14.5 17.6 14.4 33.9 0 3.9 0.1 8.1 0.3 12.2 0.1 2.5 0.2 4.9 0.3 7.2 0.1 2.2 0.2 4.3 0.3 6.4 0.1 2.6 0.2 5.1 0.2 7.3 0.1 5.4-0.2 9.2-1.4 10.1z"/>
		</g>
		<g transform="translate(34.914 93.268)">
			<path class="st31" d="m27.2-0.6c-1.2 0.7-2.5 1.3-3.8 1.8-3.1 1.1-5.8 1.9-8.2 2.7-8.4 2.5-13.8 3.2-22.2 3.6-7.8 0.4-16.1-2.6-20.2-4.4 0-2.1 0.1-4.5 0.1-7 4.6 1.3 14.4 3.8 20 3.4 6.9-0.4 15.4-1.7 21.9-3.2 3.2-0.7 5.9-1.5 7.7-2.2 1.7-0.7 3.1-1.4 4.4-2.1 0.2 2.8 0.3 5.2 0.3 7.4z"/>
		</g>
		<g transform="translate(34.319 79.525)">
			<path class="st31" d="m27.2-0.5c-1.1 0.6-2.3 1.2-3.5 1.6-3.2 1.1-6 2-8.5 2.7-8.2 2.5-13.6 3.2-21.9 3.6-7.6 0.4-15.6-2.5-19.8-4.2 0-1.1-0.1-2.2-0.2-3.3-0.1-1.4-0.3-2.7-0.6-4 4.4 1.2 14.7 3.9 20.5 3.6 6.8-0.4 15.1-1.7 21.6-3.1 3.4-0.8 6.2-1.5 8.1-2.3 1.5-0.6 2.9-1.2 4-1.9 0.1 2.5 0.2 4.9 0.3 7.3z"/>
		</g>
		<g transform="translate(18.767 45.475)">
			<path class="st29" d="m0.6 1.3c-0.7-1.5-1.1-2.5-1.2-2.7 0.5 0.9 0.9 1.8 1.2 2.7z"/>
		</g>
		<g transform="translate(42.547 56.209)">
			<path class="st29" d="m0.6-0.6c-0.4 0.3-0.8 0.7-1.2 1.2l1.2-1.2z"/>
		</g>
		<g transform="translate(33.172 29.397)">
			<path class="st25" d="m-10-9.5c-1.5 0.2-4.9 4.6-4.9 6.1 0 4.1 7.1 14.5 7.1 14.5l10.4-8.2 12.2 2.7s-4.7-6.7-6.5-9.2c-2.8-4-7.8-7.5-18.3-5.9z"/>
		</g>
		<g transform="translate(35.851 16.205)">
			<path class="st32" d="m-11.2 3.6l1.3-15.6s2.4-4 8.8-3.9c6.4 0 10.7 2.4 11.6 6 1 3.6-3.3 17.9-5.1 20.8s-2.8 4.5-4.9 4.7c-2.5 0.2-5.6 0.4-8.8-3.1s-3.2-6.8-2.9-8.9z"/>
		</g>
		<g transform="translate(27.237 240.72)">
			<path class="st28" d="m-15.7-7.7s4.6-4.8 9-5.9 6.8-0.9 9 1.3c2.2 2.3 8.3 12.5 11.3 15s2.8 6.1 2.1 6.8c-0.8 0.8-3.4 5.3-11.4 4.4s-10.6-9.5-14.6-11-4.5-3-5.4-5.5 0-5.1 0-5.1z"/>
		</g>
		<g transform="translate(59.002 222.12)">
			<path class="st28" d="m-16.1-4.5s1.6 0.9 8.3-4.5c3.2-2.6 7.8-2.3 9.8-0.3s6.2 7 11.8 9.9c3.1 1.6 3.4 5.2 2.8 6.5s-2.9 4.5-10.2 3.7c-7.3-0.9-12.9-5.6-17.4-6.7-3.7-0.9-4.5-1.8-5.3-4s0.2-4.6 0.2-4.6z"/>
		</g>
	</g>
		<g transform="matrix(.99966 .026177 -.026177 .99966 1030.8 620.83)">
		<g transform="translate(21.992 31.227)">
			<path class="st26" d="m-12.7-16.9c-3.9 4.2-4.2 11.4-3.5 15.7 0.7 4.2 3.3 14.4 6.5 16.9s7.1 7 11.6 7.2c4.4 0.2 7-4.9 8.9-10.3s6-17.4 3.9-23.2c-2.1-5.9-5.7-11.6-13.5-12-7.8-0.5-13.9 5.7-13.9 5.7z"/>
		</g>
		<g transform="translate(10.362 28.565)">
			<path class="st28" d="m-1.4 5c-0.2-7.8 5.9 8.3 8.6-7.3 0.6-3.5-2.8-11-8.6-11-3.5 0-6.5 2.8-5.6 10.1 1 7.3 1.9 15 4.5 15.6 0.7 0.1 1.3-2.2 1.1-7.4z"/>
		</g>
		<g transform="translate(8.765 31.509)">
			<path class="st26" d="m3-0.6c-0.3-0.2 0.1-5.3-3-5.1s-2.3 5.2-2.2 6c0.2 0.7 1.2 5.6 2.9 5.1 1.7-0.6 2.3-6 2.3-6z"/>
		</g>
		<g transform="translate(21.851 22.81)">
			<path class="st4" d="m-12.7-11.9s-3.8 1.4-6.3 3.9c-1.3 1.1-2.6 5.2-1 6s0.9 0 2.7 1.3 10.4 8.4 13 10.3 6.8 4.3 9.8 4.4 7.1-0.3 11-2.8 5.2-4.5 4.5-7.5-3.1-6.2-7.5-9.7c-4.5-3.6-16.3-8-26.2-5.9z"/>
		</g>
		<g transform="translate(21.671 16.928)">
			<path class="st33" d="m-1.8-15.4c-3.7-0.1-8.9 1.7-11.9 5.9s-5 6.9-4.7 9.9 6.7 8.7 10.2 10.7c3.6 2 11.4 4.4 17 3.2s8-3.2 8.8-5.1c0.7-1.9 1.2-7.2-0.8-11.8s-7.2-12.4-18.6-12.8z"/>
		</g>
		<g transform="translate(25.294 14.788)">
			<path class="st4" d="m-13.9-10.7s0.4-1.4 3.7-2.8c2.4-1 5.6-0.9 6.9-0.5s8.4 2.2 12 7.8c4.2 6.6 5.2 12.2 4.9 15.4s-3 4.9-5 5.1c-2 0.3-4.6-1.1-5-4.5-0.4-3.3-1.6-11.7-7.1-15.8s-10.4-4.7-10.4-4.7z"/>
		</g>
		<g transform="translate(21.065 21.329)">
			<path class="st4" d="m-4.4-0.7c1.2-5.2 4.1-6 5.5-5.1s3.9 7.3 3.5 9.9-5 1.5-6.9 0.7c-1.8-0.8-2.7-2.8-2.1-5.5z"/>
		</g>
	</g>
		<g transform="matrix(.99997 .0083251 -.0083251 .99997 1010.2 682.03)">
		<g transform="translate(18.416 29.683)">
			<path class="st25" d="m18.2 19.6c0 5.4-4.4 9.8-9.8 9.8-2.4 0-4.6-0.9-6.4-2.3l-0.1-0.1c-0.1 0-0.1-0.1-0.2-0.2l-0.3-0.3c-1.8-1.6-5.3-7.8-12.4-21.4-4.3-8.2-7.1-14.6-7.1-21.6v-0.1-0.6c0.3-6.3 2.8-12.3 9.2-12.3 4.4 0 8 4.3 10 7.8 0.1 0.2 0.5 1.1 1.2 2.6 3.5 8.3 13.8 31.7 14.7 34 0.7 1.4 1.2 3 1.2 4.7z"/>
		</g>
	</g>
		<g transform="matrix(.99958 .029125 -.029125 .99958 1027.4 698.93)">
		<g transform="translate(21.057 21.203)">
			<path class="st25" d="m20.8-12.1c0 2.5-1 4.7-2.7 6.3 0 0-7.1 7.6-11.5 13.6-3.7 5.1-7.9 10.8-13 12-1.4 0.8-2.9 1.2-4.6 1.2-5.4 0-9.8-4.4-9.8-9.8 0-2.6 1-4.9 2.6-6.7 2.1-3.2 11-9.5 12.8-11.3 1.5-1.5 7.8-8.1 10.5-10.8l1.1-1.1c1.5-1.3 3.5-2.1 5.7-2.1 4.9-0.2 8.9 3.8 8.9 8.7z"/>
		</g>
	</g>
		<g transform="matrix(.99992 .012479 -.012479 .99992 1058.3 671.31)">
		<g transform="translate(21.62 24.874)">
			<path class="st28" d="m-10.5-13.7l-2.5 35.8c-0.1 1.5 1.5 2.5 2.8 1.7l18.3-10.8c0.5-0.3 0.9-0.8 0.9-1.4l3.9-33.7c0.2-1.4-1.3-2.5-2.6-1.9l-19.7 8.8c-0.6 0.2-1 0.8-1.1 1.5z"/>
		</g>
		<g transform="translate(8.91 31.549)">
			<path class="st26" d="M-4.6-5.6c-2,1.3-4.1,3.9-3.3,7.4c0.8,3.4,2.2,7.6,4.6,9C-1,12.1,4.9,8.6,6.5,7C8,5.4,8.7-6.8,8.2-9.5     S-3.9-6-4.6-5.6z"/>
		</g>
		<g transform="translate(23.052 24.834)">
			<path class="st34" d="m2.1 0.5c-0.6 2.7-2 4.6-3.2 4.3s-1.6-2.6-1-5.3 2-4.6 3.2-4.3 1.6 2.6 1 5.3z"/>
		</g>
	</g>
</g>
<g transform="matrix(.5 0 0 .5 290.95 456.19)">
	<path class="st35" d="m17.7 120.2s-16.7-21.9-13.6-53.3c3.1-31.3 22.2-42.2 34.5-46.3s23-5.2 39.7-3.8 22.6 42.4 7.6 69.6c-14.9 27.2-49.6 46-68.2 33.8zm75.2-24.9c-19.9 34.5-52.4 53.1-72.4 41.5-20.1-11.6-20.2-49-0.3-83.5s52.4-53.1 72.4-41.5 20.2 49 0.3 83.5zm-72.5 41.6l152.6 88.1 73-124.6-152.5-88.1-73.1 124.6zm-18.9 41.5l134.5 77.9 40.9-24.1-134.5-77.7-40.9 23.9zm17.4-0.6l116.7 66.9 37.4-22-116.7-66.7-37.4 21.8zm117.1 78.5v15.3l-134.6-78v-15.2l134.6 77.9zm40.9-133v15.3l-134.5-78v-15.2l134.5 77.9zm0 108.9v15.5l-40.9 23.9v-15.3l40.9-24.1zm63.2-78.1c1.4 0 2.7 0.3 3.9 1 5.9 3.4 5.8 14.5-0.1 24.7-4.6 8-11.7 13.4-17.5 13.4-1.4 0-2.7-0.3-3.8-1-2.8-1.6-4.4-5.1-4.4-9.7 0-4.7 1.6-10.1 4.5-15.1 4.5-7.9 11.5-13.3 17.4-13.3zm0-0.5c-5.8 0-13.1 5.3-17.9 13.7-6.1 10.5-6 21.8 0.1 25.4 1.2 0.7 2.6 1.1 4.1 1.1 5.8 0 13.1-5.3 17.9-13.7 6.1-10.5 6-21.8-0.1-25.4-1.3-0.8-2.6-1.1-4.1-1.1zm-103.5 53.4l12.8 7.9-17.1 25.3-13.1-7.5 17.4-25.7zm-111.1-136.6l134.5 78.1 16.9-9.9-134.5-78-16.9 9.8zm16-46.9l94.5 54.4v21.7l-82.1-47.3-12.4-28.8zl94.5 54.4 34.6-21-93.7-54.2-35.4 20.8zm143.9 74.8v29.9l-49.4-28.6v-29.8l49.4 28.5zm51.2-30.1v30.2l-51.2 29.9v-30l51.2-30.1zm-100.6 1.6l51.2-29.9 49.4 28.3-51.2 30.1-49.4-28.5zm-94.5-46.3l-10.4 15.3 22.7 13.5-12.3-28.8zm71.6 78.1l-17.1 10.1 17.1-25.3v15.2zm29.8 17.5l-17.1 10.1 17.1-25.3v15.2zm-69.3-40.5l-17.1 10.1 17.1-25.3v15.2zm-10.1-21.1l10.2 5.9-17.2 25.3-10.2-5.9 17.2-25.3zm129.7 142.5c-18.5 16.2-39 22.4-53.5 14-12.2-7.1-17.6-23-16.2-42.2 0.9-11.9 4.4-25.1 10.6-38.3l6.3 3.6c-14 31.1-11.8 62.2 6.4 72.7 12.7 7.3 30.2 2.9 46.4-9.8zm-105.6-128.5l25.4 14.9-17 25.3-25.5-14.9 17.1-25.3zm-7.6 103.3l25.5 14.9-17.2 25.3-25.6-14.6 17.3-25.6zm50.2-78.8l12.8 7.9-17.1 25.3-12.8-7.9 17.1-25.3zm-89.5 56.4l12.8 7.9-16.9 25-13-7.6 17.1-25.3zm99 61.6l-96.4-55.7c-19.9-11.5-21.8-46.2-5.5-80.7l78 45.3 18.3 10.6c-6.2 13.2-9.7 26.4-10.6 38.3-1.4 19.2 4 35.1 16.2 42.2zm9.8-87.6l3.8 2.1v129.2l-3.8-2.1v-129.2zm107.9-59.1v129.7l-104.1 60.7v-129.2l104.1-61.2zm-12 116.2c-19.9 34.5-52.3 53.1-72.4 41.5s-20.2-49-0.3-83.5 52.4-53.1 72.4-41.5c20.2 11.6 20.3 48.9 0.3 83.5zm12-116.2l-3.8-2.2-104.1 61.3 3.8 2.1 104.1-61.2zm-84.4 157.7l19.3 11.1 72.2-125-18.5-10.7-73 124.6zm91.8-30.4c-19.9 34.5-52.4 53.1-72.4 41.5-20.1-11.6-20.2-49-0.3-83.5s52.4-53.1 72.4-41.5c20.1 11.6 20.2 49 0.3 83.5zm-17.7-60.8c2.9 0 5.6 0.7 8 2.1 12 6.9 12 29.5 0 50.4-9.4 16.3-23.7 27.2-35.6 27.2-3 0-5.6-0.7-8-2.1-12-6.9-12-29.5 0-50.4 9.3-16.2 23.6-27.2 35.6-27.2zm0-0.5c-11.7 0-26.3 10.6-36 27.5-12.2 21.1-12.1 43.9 0.2 51 2.5 1.4 5.2 2.1 8.2 2.1 11.7 0 26.3-10.6 36-27.5 12.2-21.1 12.1-43.9-0.2-51-2.5-1.4-5.3-2.1-8.2-2.1zm8.3 53.1c-12.2 21.1-32 32.5-44.2 25.4-12.3-7.1-12.3-29.9-0.2-51 12.2-21.1 32-32.5 44.2-25.4 12.3 7.1 12.4 30 0.2 51zm-13-7.5c-5.1 8.7-13.3 13.4-18.3 10.5-5.1-2.9-5.1-12.4-0.1-21.1 5.1-8.7 13.3-13.5 18.4-10.5 5 2.9 5.1 12.4 0 21.1zm-4.4-2.5c-2.6 4.6-6.9 7-9.6 5.5-2.6-1.5-2.7-6.5 0-11 2.6-4.6 6.9-7 9.6-5.5 2.6 1.5 2.6 6.5 0 11zm-71.6-39.6c-0.8 3-2.9 5.1-4.7 4.6s-2.5-3.3-1.7-6.3 2.9-5.1 4.7-4.6c1.7 0.5 2.5 3.3 1.7 6.3zm0 105.9c-0.8 3-2.9 5.1-4.7 4.6s-2.5-3.3-1.7-6.3 2.9-5.1 4.7-4.6c1.7 0.4 2.5 3.3 1.7 6.3zm86.3-158.7c-0.8 3-2.9 5.1-4.7 4.6s-2.5-3.3-1.7-6.3 2.9-5.1 4.7-4.6c1.8 0.4 2.6 3.2 1.7 6.3zm-188.7-54.1l25.7-15 12.9 7.5-25.6 15.1-13-7.6zm16.9 9.8l25.7-15 12.9 7.5-25.7 15.1-12.9-7.6zm32.2 17.8l25.7-15 12.9 7.5-25.7 15.1-12.9-7.6zm124.9 107.9l31.3 18.1-9.5 16.5-31.3-18.1 9.5-16.5zm31.3 29.1c-2.6 4.6-6.9 7-9.6 5.5-2.6-1.5-2.7-6.5 0-11 2.6-4.5 6.9-7 9.6-5.5 2.6 1.5 2.6 6.4 0 11zm0-11.1l4.3 2.5-9.5 16.5-4.4-2.5 9.6-16.5zm4.3 13.6c-2.6 4.6-6.9 7-9.6 5.5-2.6-1.5-2.7-6.5 0-11 2.6-4.6 6.9-7 9.6-5.5s2.7 6.4 0 11zm1.4 0.8c-1.7 3-4.5 4.6-6.2 3.6s-1.7-4.2 0-7.2 4.5-4.5 6.2-3.6c1.7 1 1.8 4.2 0 7.2zm-41.6-55.8v13.4m3.6-15.5v13.4m-7.6-9.4v13.4m4 34.8v13.4m3.6-15.5v13.4m-7.6-9.4v13.4m-189.1-114.8l77.7 45.1m-81-36.2l77.7 45.1m-79.9-35.7l77.6 45.1m-78.6-35.9l77.6 45.1m-76.6-34.5l77.6 45.1m-75.4-34.6l77.7 45.1m-74.4-35.2l77.7 45.1"/>
	<g transform="translate(50.951 73.909)">
		<path class="st36" d="m-33.3 46.3s-16.7-21.9-13.6-53.3c3.1-31.3 22.2-42.2 34.6-46.3s23-5.2 39.7-3.8c16.6 1.4 22.6 42.4 7.6 69.6s-49.6 46-68.3 33.8z"/>
	</g>
	<g transform="translate(56.528 74.351)">
		<path class="st27" d="m36.3 21c-19.9 34.5-52.3 53.1-72.4 41.5s-20.2-49-0.3-83.5c20-34.5 52.4-53.1 72.5-41.5s20.2 49 0.2 83.5z"/>
	</g>
	<g transform="translate(133.24 118.64)">
		<path class="st27" d="m-112.8 18.2l152.6 88.1 73-124.6-152.6-88.1-73 124.6z"/>
	</g>
	<g transform="translate(89.206 205.41)">
		<path class="st25" d="M-87.7-27L46.8,50.9l40.9-24.1L-46.8-50.9L-87.7-27z"/>
	</g>
	<g transform="translate(95.966 200.34)">
		<path class="st36" d="m-77.1-22.5l116.8 66.9 37.4-22-116.8-66.8-37.4 21.9z"/>
	</g>
	<g transform="translate(68.759 225)">
		<path class="st27" d="m67.3 31.3v15.3l-134.6-78v-15.2l134.6 77.9z"/>
	</g>
	<g transform="translate(109.65 92.036)">
		<path class="st37" d="m67.3 31.3v15.3l-134.6-78v-15.2l134.6 77.9z"/>
	</g>
	<g transform="translate(156.48 251.93)">
		<path class="st38" d="M20.4-19.7v15.5l-40.9,23.9V4.4L20.4-19.7z"/>
	</g>
	<g transform="translate(233.21 173.63)">
		<path d="m6.9-19.6c1.4 0 2.7 0.3 3.9 1 5.9 3.4 5.8 14.5-0.1 24.7-4.7 8.1-11.7 13.5-17.6 13.5-1.4 0-2.7-0.3-3.9-1-2.8-1.6-4.3-5-4.4-9.7 0-4.7 1.6-10.1 4.5-15.1 4.7-8 11.7-13.4 17.6-13.4zm0-0.4c-5.9 0-13.1 5.3-17.9 13.6-6.1 10.5-6 21.8 0.1 25.4 1.2 0.7 2.6 1 4.1 1 5.8 0 13-5.3 17.8-13.6 6.1-10.5 6-21.8-0.1-25.4-1.2-0.7-2.5-1-4-1z"/>
	</g>
	<g transform="translate(134.26 223.57)">
		<path class="st27" d="M2.3-16.6l12.8,7.9L-2,16.6l-13.1-7.5L2.3-16.6z"/>
	</g>
	<g transform="translate(101.22 104.59)">
		<path class="st25" d="M-75.7-34.1L58.8,44l16.9-9.9L-58.8-44L-75.7-34.1z"/>
	</g>
	<g transform="translate(88.783 61.58)">
		<path class="st25" d="M-47.3-38l94.5,54.3V38L-34.9-9.3L-47.3-38z"/>
	</g>
	<g transform="translate(106.07 40.316)">
		<path class="st37" d="m-64.5-16.8l94.5 54.4 34.6-21-93.7-54.1-35.4 20.7z"/>
	</g>
	<g transform="translate(160.72 99.011)">
		<path class="st25" d="M24.7-0.7v29.9L-24.7,0.6v-29.9L24.7-0.7z"/>
	</g>
	<g transform="translate(211.02 98.242)">
		<path class="st36" d="M25.6-30V0.1L-25.6,30V0.1L25.6-30z"/>
	</g>
	<g transform="translate(186.33 69.111)">
		<path class="st37" d="M-50.3,0.6L0.9-29.2L50.3-0.9L-0.9,29.2L-50.3,0.6z"/>
	</g>
	<g transform="translate(42.49 37.931)">
		<path class="st25" d="M-1-14.4L-11.4,0.9l22.7,13.5L-1-14.4z"/>
	</g>
	<g transform="translate(104.51 99.034)">
		<path class="st38" d="m8.5 2.6l-17 10 17-25.2v15.2z"/>
	</g>
	<g transform="translate(134.4 116.55)">
		<path class="st38" d="m8.5 2.6l-17 10 17-25.2v15.2z"/>
	</g>
	<g transform="translate(65.076 76.053)">
		<path class="st38" d="m8.5 2.6l-17 10 17-25.2v15.2z"/>
	</g>
	<g transform="translate(59.997 73.088)">
		<path class="st27" d="m3.5-15.6l10.2 5.9-17.2 25.3-10.2-5.9 17.2-25.3z"/>
	</g>
	<g transform="translate(157.65 177.92)">
		<path class="st39" d="m35.6 22c-18.5 16.2-39 22.4-53.5 14-12.2-7.1-17.6-23-16.2-42.2 0.9-11.9 4.4-25.1 10.6-38.3l6.3 3.6c-14 31.1-11.8 62.2 6.4 72.7 12.7 7.4 30.2 3 46.4-9.8z"/>
	</g>
	<g transform="translate(91.788 91.6)">
		<path class="st27" d="M-4.2-20.1L21.3-5.2L4.2,20.1L-21.3,5.2L-4.2-20.1z"/>
	</g>
	<g transform="translate(84.081 194.88)">
		<path class="st27" d="M-4.1-20.1L21.4-5.2L4.3,20.1L-21.4,5.5L-4.1-20.1z"/>
	</g>
	<g transform="translate(128 112.6)">
		<path class="st27" d="m2.2-16.6l12.8 7.9-17.2 25.3-12.8-7.9 17.2-25.3z"/>
	</g>
	<g transform="translate(38.558 168.87)">
		<path class="st27" d="m2.2-16.5l12.8 7.9-17 25.1-13-7.6 17.2-25.4z"/>
	</g>
	<g transform="translate(80.626 145.76)">
		<path class="st40" d="m59.1 68.2l-96.4-55.7c-19.9-11.5-21.8-46.2-5.5-80.7l78 45.3 18.3 10.6c-6.2 13.2-9.7 26.4-10.6 38.3-1.5 19.2 3.9 35.1 16.2 42.2z"/>
	</g>
	<g transform="translate(151.44 192.04)">
		<path class="st37" d="M-1.9-65.7l3.8,2.2V65.7l-3.8-2.2V-65.7z"/>
	</g>
	<g transform="translate(205.4 162.49)">
		<path class="st38" d="M52-95.2V34.5L-52,95.2V-34L52-95.2z"/>
	</g>
	<g transform="translate(209.11 162.49)">
		<path class="st25" d="m36.3 21c-19.9 34.5-52.3 53.1-72.4 41.5s-20.2-49-0.3-83.5c20-34.5 52.4-53.1 72.5-41.5s20.2 49 0.2 83.5z"/>
	</g>
	<g transform="translate(203.48 96.808)">
		<path class="st25" d="M54-29.5l-3.8-2.2L-54,29.5l3.8,2.2L54-29.5z"/>
	</g>
	<g transform="translate(218.76 168.28)">
		<path class="st25" d="m-45.7 56.7l19.3 11.1 72.2-125-18.5-10.7-73 124.6z"/>
	</g>
	<g transform="translate(228.42 173.63)">
		<path class="st38" d="m36.3 21c-19.9 34.5-52.3 53.1-72.4 41.5s-20.2-49-0.3-83.5c20-34.5 52.4-53.1 72.5-41.5s20.2 49 0.2 83.5z"/>
	</g>
	<g transform="translate(233.21 173.63)">
		<path d="m13.8-39.8c2.9 0 5.6 0.7 8 2 12 6.9 12 29.5 0 50.4-9.4 16.3-23.7 27.2-35.6 27.2-2.9 0-5.6-0.7-8-2-12-6.9-12-29.5 0-50.4 9.4-16.3 23.7-27.2 35.6-27.2zm0-0.5c-11.7 0-26.3 10.6-36 27.5-12.2 21.1-12.1 43.9 0.2 51 2.5 1.4 5.3 2.1 8.2 2.1 11.7 0 26.3-10.6 36-27.5 12.2-21.1 12.1-43.9-0.2-51-2.4-1.4-5.2-2.1-8.2-2.1z"/>
	</g>
	<g transform="translate(233.21 173.63)">
		<path class="st39" d="m22.2 12.8c-12.2 21.1-32 32.5-44.2 25.4-12.3-7.1-12.3-29.9-0.2-51 12.2-21.1 32-32.5 44.2-25.4 12.3 7.1 12.4 29.9 0.2 51z"/>
	</g>
	<g transform="translate(233.21 173.63)">
		<path class="st38" d="m9.2 5.3c-5 8.7-13.3 13.5-18.3 10.5-5.1-2.9-5.1-12.4-0.1-21.1s13.3-13.5 18.3-10.5c5.1 2.9 5.2 12.4 0.1 21.1z"/>
	</g>
	<g transform="translate(233.21 173.63)">
		<path class="st36" d="m4.8 2.8c-2.6 4.6-6.9 7-9.6 5.5-2.6-1.5-2.7-6.5 0-11s6.9-7 9.6-5.5c2.6 1.5 2.6 6.4 0 11z"/>
	</g>
	<g transform="translate(163.19 135.97)">
		<path class="st41" d="M3.2,0.9c-0.8,3-2.9,5.1-4.7,4.6C-3.2,5-4,2.1-3.2-0.9c0.8-3,2.9-5.1,4.7-4.6C3.2-5,4-2.1,3.2,0.9z"/>
	</g>
	<g transform="translate(163.19 241.8)">
		<path class="st41" d="M3.2,0.9c-0.8,3-2.9,5.1-4.7,4.6C-3.2,5-4,2.1-3.2-0.9c0.8-3,2.9-5.1,4.7-4.6C3.2-5,4-2.1,3.2,0.9z"/>
	</g>
	<g transform="translate(249.55 83.095)">
		<path class="st41" d="M3.2,0.9c-0.8,3-2.9,5.1-4.7,4.6C-3.2,5-4,2.1-3.2-0.9s2.9-5.1,4.7-4.6C3.2-5,4-2.1,3.2,0.9z"/>
	</g>
	<g transform="translate(83.359 26.19)">
		<path class="st41" d="m-19.3 3.7l25.7-15 12.9 7.5-25.7 15.1-12.9-7.6z"/>
	</g>
	<g transform="translate(100.22 36.011)">
		<path class="st41" d="m-19.3 3.7l25.7-15 12.9 7.5-25.7 15.1-12.9-7.6z"/>
	</g>
	<g transform="translate(132.4 53.802)">
		<path class="st41" d="m-19.3 3.7l25.7-15 12.9 7.5-25.7 15.1-12.9-7.6z"/>
	</g>
	<g transform="translate(248.86 182.67)">
		<path class="st36" d="m-10.9-17.3l31.3 18.1-9.5 16.5-31.3-18.1 9.5-16.5z"/>
	</g>
	<g transform="translate(264.51 191.7)">
		<path class="st40" d="m4.8 2.8c-2.6 4.6-6.9 7-9.6 5.5-2.6-1.5-2.7-6.5 0-11 2.6-4.6 6.9-7 9.6-5.5 2.6 1.5 2.6 6.4 0 11z"/>
	</g>
	<g transform="translate(266.68 192.96)">
		<path class="st40" d="M2.6-9.5L6.9-7L-2.6,9.5L-6.9,7L2.6-9.5z"/>
	</g>
	<g transform="translate(268.85 194.21)">
		<path class="st39" d="m4.8 2.8c-2.6 4.6-6.9 7-9.6 5.5-2.6-1.5-2.7-6.5 0-11s6.9-7 9.6-5.5 2.6 6.4 0 11z"/>
	</g>
	<g transform="translate(271.92 195.98)">
		<path class="st40" d="m3.1 1.8c-1.7 3-4.5 4.6-6.2 3.6s-1.7-4.2 0-7.2 4.5-4.6 6.2-3.6 1.7 4.2 0 7.2z"/>
	</g>
	<g>
		<path class="st42" d="m233.4 142v13.4"/>
	</g>
	<g>
		<path class="st42" d="m237 139.9v13.4"/>
	</g>
	<g>
		<path class="st42" d="m229.4 143.9v13.4"/>
	</g>
	<g>
		<path class="st42" d="m233.4 192.1v13.4"/>
	</g>
	<g>
		<path class="st42" d="m237 190v13.4"/>
	</g>
	<g>
		<path class="st42" d="m229.4 194v13.4"/>
	</g>
	<g transform="translate(79.105 115.15)">
		<path class="st42" d="m-38.8-22.5l77.7 45.1"/>
	</g>
	<g transform="translate(75.827 124.01)">
		<path class="st42" d="m-38.8-22.5l77.7 45.1"/>
	</g>
	<g transform="translate(73.623 133.49)">
		<path class="st42" d="m-38.8-22.5l77.7 45.1"/>
	</g>
	<g transform="translate(72.626 142.66)">
		<path class="st42" d="m-38.8-22.5l77.7 45.1"/>
	</g>
	<g transform="translate(73.623 153.28)">
		<path class="st42" d="m-38.8-22.5l77.7 45.1"/>
	</g>
	<g transform="translate(75.827 163.71)">
		<path class="st42" d="m-38.8-22.5l77.7 45.1"/>
	</g>
	<g transform="translate(79.105 173.63)">
		<path class="st42" d="m-38.8-22.5l77.7 45.1"/>
	</g>
</g>
<g transform="matrix(.5 0 0 .5 520.02 576.26)">
	<path class="st35" d="m116.7 19.2s11-2.1 13.3 4.4-4.5 13.7-8.4 17.6c-3.9 4-5.8 10.2-3.9 15.9s9.1 13.9 7.7 19.9-10 11.4-10 11.4m-4.9-72.9s14.9-2.1 22.5 3.7c7.7 5.8 9.5 12 8.4 19-1.2 7-14.4 36.7-32.3 46.7m-7.7-74.5c2.8 6.4 1.8 13-2.3 14.8s-9.6-2-12.4-8.4-1.8-13 2.3-14.8 9.6 2 12.4 8.4zm-47.3 11.5l34.9-19.9 10.2 23.2-34.9 19.8-10.2-23.1zm47-2.7c0 3.6-2.5 6.6-5.6 6.6s-5.6-3-5.6-6.6 2.5-6.6 5.6-6.6 5.6 2.9 5.6 6.6zm-34.4 60.7c-1.6 6-5.8 10-9.2 9.1-3.5-1-5-6.6-3.3-12.5 1.6-5.9 5.8-10 9.2-9.1s4.9 6.5 3.3 12.5zm-2.9-0.8c-0.9 3.2-3.1 5.4-5 4.9-1.8-0.5-2.7-3.5-1.8-6.7s3.1-5.4 4.9-4.9c2 0.5 2.8 3.5 1.9 6.7zm-1.6-1.6c-1.6 6-5.8 10-9.2 9.1-3.5-0.9-4.9-6.5-3.3-12.5s5.8-10 9.2-9.1c3.5 0.9 5 6.5 3.3 12.5zm-2.7-12.3l4.5 2.4-6.5 21.3-4.5-2.3 6.5-21.4zm-48.4 73.3l75-40.2 80.3 42.5-77.7 43.4-77.6-45.7zm0 8.4l77.6 45.7v-8.4l-77.6-45.7v8.4zm155.3 2.2l-77.7 43.4v-8.4l77.7-43.4v8.4zm-73.7 28.1c0 1.2-1.8 2.1-4.1 2.1s-4.1-1-4.1-2.1c0-1.2 1.8-2.1 4.1-2.1 2.3-0.1 4.1 0.9 4.1 2.1zm-65.6-38.7c0 1.2-1.9 2.1-4.1 2.1-2.3 0-4.1-1-4.1-2.1s1.9-2.1 4.1-2.1 4.1 0.9 4.1 2.1zm131.9 2.1c0 1.2-1.8 2.1-4.1 2.1s-4.1-1-4.1-2.1c0-1.2 1.9-2.1 4.1-2.1 2.3 0 4.1 1 4.1 2.1zm-24.3-2.9c0 13.1-20.5 23.8-45.8 23.8s-45.8-10.6-45.8-23.8c0-13.1 20.5-23.8 45.8-23.8s45.8 10.7 45.8 23.8zm-91.5 0h91.6v-10.1h-91.6v10.1zm91.5-10.1c0 13.1-20.5 23.8-45.8 23.8s-45.8-10.6-45.8-23.8c0-13.1 20.5-23.8 45.8-23.8s45.8 10.6 45.8 23.8zm-5.9-2c0 11.4-17.8 20.7-39.9 20.7s-39.9-9.2-39.9-20.7 17.9-20.7 39.9-20.7 39.9 9.3 39.9 20.7zm-79.8 0h79.8v-8.6h-79.8v8.6zm79.8-8.6c0 11.4-17.8 20.7-39.9 20.7s-39.9-9.3-39.9-20.7 17.9-20.7 39.9-20.7 39.9 9.3 39.9 20.7zm-74-0.4l31.3 16.9v-23.2l-31.3-17v23.3zm68.1-5l-36.8 21.8v-23.2l36.8-21.8v23.2zm0-23.2l-31.3-16.9-36.8 21.8 31.3 16.9 36.8-21.8zm-6.2-72.7l-5.2 15.9-41.5 67.7-10.6-5-0.6-0.3c-3.6-1.9-4.9-8.2-3.1-15 0.6-2.2 1.5-4.2 2.5-5.8l0.5-0.7 37.2-56.5 0.9-1.4 0.1-0.2c2.4-3.2 5.4-4.9 8.1-4.2 0.5 0.1 1 0.3 1.4 0.7l10.3 4.8zm4.1 15.4c-0.7 2.4-1.7 4.5-2.8 6.3l-0.2 0.3-37.4 57c-2.5 4-5.9 6.2-8.9 5.4-4.3-1.2-6.1-8.1-4.1-15.4 0.6-2.2 1.5-4.2 2.5-5.8l0.5-0.7 37.2-56.5 0.9-1.4 0.2-0.2c2.4-3.2 5.4-4.9 8.1-4.2 4.2 0.9 6 7.8 4 15.2zm-3.2-2.2c-0.9 3.2-3.1 5.4-4.9 4.9-1.9-0.5-2.7-3.5-1.8-6.7s3.1-5.4 5-4.9c1.8 0.5 2.6 3.5 1.7 6.7zm-51 1.3c2.8 6.4 1.8 13-2.3 14.8s-9.6-2-12.4-8.4-1.8-13 2.2-14.8c4.1-1.7 9.7 2 12.5 8.4zm-3.9 2c1.3 3 0.8 6.1-1.1 6.9s-4.5-0.9-5.8-3.9-0.8-6.1 1.1-6.9c1.8-0.9 4.4 0.9 5.8 3.9zm16.5 79c0.2 1.1-0.3 2.1-1.1 2.2s-1.5-0.7-1.7-1.8 0.3-2.1 1.1-2.2c0.7-0.1 1.5 0.7 1.7 1.8zm0 12.9c0.2 1.1-0.3 2.1-1.1 2.2s-1.5-0.7-1.7-1.8 0.3-2.1 1.1-2.2c0.7-0.1 1.5 0.7 1.7 1.8zm-16.7-21.4c0.2 1.1-0.3 2.1-1.1 2.2s-1.5-0.7-1.7-1.8 0.3-2.1 1.1-2.2 1.6 0.7 1.7 1.8zm0 12.1c0.2 1.1-0.3 2.1-1.1 2.2s-1.5-0.7-1.7-1.8 0.3-2.1 1.1-2.2c0.8-0.2 1.6 0.7 1.7 1.8zm51.8-12.4l-17.1 10.1v-3.5l17.1-10.1v3.5zm0 8.8l-17.1 10.1v-3.6l17.1-10.1v3.6zm-22.6-41.4l-8.5-5.5 11-17 8.5 5.5-11 17zm12.2-18.9l-8.5-5.5 1.3-2 8.5 5.5-1.3 2zm2.6-4l-8.5-5.4 1.3-2 8.5 5.5-1.3 1.9zm-23 41.4c-1.6 6-5.8 10-9.2 9.1-3.5-0.9-4.9-6.5-3.3-12.5s5.8-10 9.2-9.1c3.5 1 5 6.5 3.3 12.5zm-3.3-12.5l4.4 2.4-5.9 21.6-4.4-2.4 5.9-21.6zm7.8 14.9c-1.6 5.9-5.8 10-9.2 9.1s-5-6.5-3.3-12.5c1.6-6 5.8-10 9.2-9.1s4.9 6.5 3.3 12.5zm-2.9-0.8c-0.9 3.2-3.1 5.4-5 4.9-1.8-0.5-2.6-3.5-1.8-6.7 0.9-3.2 3.1-5.4 5-4.9s2.6 3.5 1.8 6.7zm-28.3-61.6l-11.7 6.7 4.8 10.9 11.7-6.7-4.8-10.9zm-33.9 25.7c-1.8 6.5-6.3 11-10.2 10-3.8-1-5.4-7.2-3.6-13.8 1.8-6.5 6.3-11 10.2-10 3.7 1 5.3 7.2 3.6 13.8zm-7-3.7c-1.8 6.5-6.3 11-10.1 10s-5.4-7.2-3.6-13.8c1.8-6.5 6.3-11 10.1-10 3.7 1.1 5.3 7.2 3.6 13.8zm-3.7-13.8l7 3.7-6.5 23.8-7-3.7 6.5-23.8zm41 1.4c2.8 6.4 1.8 13-2.3 14.8s-9.6-2-12.4-8.4-1.8-13 2.3-14.8 9.5 2 12.4 8.4zm-26.1 65.3l-3.2 2v-17.8l3.2-2v17.8zm-3.2 2l-2.1-0.6v-17.8l2.1 0.6v17.8zm-4.1-4l-3.2 2v-17.7l3.2-2v17.7zm-3.2 2.1l-2.1-0.6v-17.9l2.1 0.6v17.9zm12.2-17.4c0 2.3-3.7 4.2-8.2 4.2s-8.2-1.9-8.2-4.2 3.7-4.2 8.2-4.2 8.2 1.8 8.2 4.2zm0-8.9h-16.4v8.9h16.3v-8.9zm2.1-0.6c0 2.9-4.6 5.3-10.3 5.3s-10.3-2.4-10.3-5.3 4.6-5.3 10.3-5.3 10.3 2.4 10.3 5.3zm0-13.2h-20.5v13.3h20.5v-13.3zc0 2.9-4.6 5.3-10.3 5.3s-10.3-2.4-10.3-5.3 4.6-5.3 10.3-5.3 10.3 2.3 10.3 5.3zm-14.7-19.3l24.5-14.3 10.2 23.2-24.5 14.3-10.2-23.2zm12.5 8.4c2.8 6.4 1.8 13-2.3 14.8-4 1.8-9.6-2-12.4-8.4s-1.8-13 2.3-14.8c4-1.8 9.6 2 12.4 8.4zm4.1 6.7c-1.8 6.6-6.3 11-10.2 10-3.8-1-5.4-7.2-3.6-13.8s6.4-11 10.2-10 5.4 7.2 3.6 13.8zm-3.6-13.8l7 3.6-6.5 23.7-7-3.6 6.5-23.7zm10.6 17.4c-1.8 6.6-6.3 11-10.2 10-3.8-1-5.5-7.2-3.7-13.8s6.3-11 10.2-10c3.9 1.1 5.5 7.2 3.7 13.8zm-3.2-0.9c-1 3.5-3.4 5.9-5.5 5.4-2-0.6-2.9-3.9-2-7.4 1-3.5 3.4-5.9 5.4-5.4 2.2 0.6 3.1 3.9 2.1 7.4z"/>
	<g transform="translate(123.82 52.731)">
		<path class="st43" d="m-7.1-33.6s11-2.1 13.3 4.4-4.5 13.7-8.4 17.6c-4 4-5.8 10.2-4 15.9 1.9 5.7 9.2 13.9 7.8 19.9s-10 11.4-10 11.4"/>
	</g>
	<g transform="translate(125.79 49.119)">
		<path class="st44" d="m-15.3-33.6s14.9-2.1 22.5 3.7c7.7 5.8 9.5 12 8.4 19-1.2 6.9-14.4 36.6-32.3 46.6"/>
	</g>
	<g transform="translate(94.082 13.616)">
		<path class="st38" d="m7.3-3.2c2.8 6.4 1.8 13-2.3 14.8-4 1.8-9.5-2-12.3-8.4s-1.8-13 2.3-14.8c4-1.8 9.5 2 12.3 8.4z"/>
	</g>
	<g transform="translate(76.647 23.539)">
		<path class="st38" d="m-22.5-1.7l34.9-19.8 10.1 23.2-34.9 19.8-10.1-23.2z"/>
	</g>
	<g transform="translate(95.498 19.169)">
		<path class="st36" d="m5.6 0c0 3.7-2.5 6.6-5.6 6.6s-5.6-3-5.6-6.6c0-3.7 2.5-6.6 5.6-6.6s5.6 2.9 5.6 6.6z"/>
	</g>
	<g transform="translate(60.428 78.154)">
		<path class="st39" d="m6.3 1.7c-1.6 6-5.8 10-9.2 9.1-3.5-1-5-6.6-3.4-12.5 1.6-6 5.8-10 9.2-9.1 3.5 1 5 6.6 3.4 12.5z"/>
	</g>
	<g transform="translate(60.427 78.154)">
		<path class="st39" d="m3.4 0.9c-0.9 3.2-3.1 5.4-5 4.9s-2.7-3.5-1.8-6.7 3.1-5.4 4.9-4.9c1.9 0.5 2.7 3.5 1.9 6.7z"/>
	</g>
	<g transform="translate(55.983 75.776)">
		<path class="st39" d="m6.3 1.7c-1.6 6-5.8 10-9.2 9.1-3.5-1-5-6.6-3.4-12.5 1.6-6 5.8-10 9.2-9.1 3.5 1 5 6.6 3.4 12.5z"/>
	</g>
	<g transform="translate(58.518 77.067)">
		<path class="st39" d="M1-11.9l4.5,2.4L-1,11.9l-4.4-2.4L1-11.9z"/>
	</g>
	<g transform="translate(88.708 141.23)">
		<path class="st25" d="M-77.7-2.7l75-40.2L77.7-0.5L-0.1,42.9L-77.7-2.7z"/>
	</g>
	<g transform="translate(49.854 165.51)">
		<path class="st27" d="M-38.8-18.7L38.8,27v-8.4L-38.8-27V-18.7z"/>
	</g>
	<g transform="translate(127.5 166.65)">
		<path class="st38" d="m38.9-17.5l-77.7 43.4v-8.4l77.7-43.4v8.4z"/>
	</g>
	<g transform="translate(88.592 177.18)">
		<path class="st41" d="m4.1 0c0 1.2-1.8 2.1-4.1 2.1s-4.1-1-4.1-2.1 1.8-2.1 4.1-2.1 4.1 0.9 4.1 2.1z"/>
	</g>
	<g transform="translate(22.945 138.5)">
		<path class="st41" d="m4.1 0c0 1.2-1.8 2.1-4.1 2.1s-4.1-1-4.1-2.1 1.8-2.1 4.1-2.1 4.1 0.9 4.1 2.1z"/>
	</g>
	<g transform="translate(154.91 140.64)">
		<path class="st41" d="m4.1 0c0 1.2-1.8 2.1-4.1 2.1s-4.1-1-4.1-2.1 1.8-2.1 4.1-2.1 4.1 0.9 4.1 2.1z"/>
	</g>
	<g transform="translate(88.93 137.71)">
		<path class="st27" d="M45.8,0c0,13.1-20.5,23.8-45.8,23.8S-45.8,13.1-45.8,0S-25.3-23.8,0-23.8S45.8-13.1,45.8,0z"/>
	</g>
	<g transform="translate(88.93 132.64)">
		<path class="st27" d="M-45.8,5.1h91.6V-5.1h-91.6V5.1z"/>
	</g>
	<g transform="translate(88.93 127.57)">
		<path class="st37" d="M45.8,0c0,13.1-20.5,23.8-45.8,23.8S-45.8,13.1-45.8,0S-25.3-23.8,0-23.8S45.8-13.1,45.8,0z"/>
	</g>
	<g transform="translate(88.929 125.64)">
		<path class="st27" d="m39.9 0c0 11.4-17.9 20.7-39.9 20.7s-39.9-9.3-39.9-20.7 17.9-20.7 39.9-20.7 39.9 9.3 39.9 20.7z"/>
	</g>
	<g transform="translate(88.929 121.33)">
		<path class="st27" d="m-39.9 4.3h79.8v-8.6h-79.8v8.6z"/>
	</g>
	<g transform="translate(88.929 117.02)">
		<path class="st37" d="m39.9 0c0 11.4-17.9 20.7-39.9 20.7s-39.9-9.3-39.9-20.7 17.9-20.7 39.9-20.7 39.9 9.3 39.9 20.7z"/>
	</g>
	<g transform="translate(70.427 113.4)">
		<path class="st39" d="M-15.7,3.2l31.3,16.9V-3.2l-31.3-16.9V3.2z"/>
	</g>
	<g transform="translate(104.49 110.93)">
		<path class="st40" d="M18.4,0.7l-36.8,21.8V-0.7l36.8-21.8V0.7z"/>
	</g>
	<g transform="translate(88.824 90.877)">
		<path class="st37" d="M34.1-2.5L2.7-19.4L-34.1,2.5l31.3,16.9L34.1-2.5z"/>
	</g>
	<g transform="translate(85.298 54.377)">
		<path class="st25" d="m31.4-38.7l-5.2 15.9-41.5 67.8-10.6-5-0.6-0.3c-3.6-1.9-4.9-8.2-3.1-15 0.6-2.2 1.5-4.2 2.5-5.8l0.5-0.7 37.1-56.5 0.9-1.4 0.1-0.2c2.4-3.2 5.4-4.9 8.1-4.2 0.5 0.1 1 0.4 1.4 0.7l10.4 4.7z"/>
	</g>
	<g transform="translate(94.082 57.868)">
		<path class="st38" d="m26.7-26.8c-0.6 2.4-1.7 4.5-2.8 6.3l-0.2 0.3-37.4 57c-2.5 4-5.9 6.2-8.9 5.4-4.3-1.2-6.1-8.1-4.1-15.4 0.6-2.2 1.5-4.2 2.5-5.8l0.5-0.7 37.1-56.5 0.9-1.4 0.1-0.2c2.4-3.2 5.4-4.9 8.1-4.2 4.4 1 6.2 7.9 4.2 15.2z"/>
	</g>
	<g transform="translate(114.28 27.995)">
		<path class="st41" d="m3.4 0.9c-0.9 3.2-3.1 5.4-5 4.9s-2.7-3.5-1.8-6.7 3.1-5.4 4.9-4.9c1.9 0.5 2.7 3.5 1.9 6.7z"/>
	</g>
	<g transform="translate(59.213 33.462)">
		<path class="st25" d="m7.3-3.2c2.8 6.4 1.8 13-2.3 14.8-4 1.8-9.5-2-12.3-8.4s-1.8-13 2.3-14.8c4-1.8 9.5 2 12.3 8.4z"/>
	</g>
	<g transform="translate(59.212 33.701)">
		<path class="st36" d="m3.4-1.5c1.3 3 0.8 6.1-1.1 6.9-1.8 0.9-4.4-0.9-5.7-3.9s-0.8-6.1 1.1-6.9c1.8-0.9 4.4 0.9 5.7 3.9z"/>
	</g>
	<g transform="translate(77.79 111.46)">
		<path class="st45" d="m1.4-0.2c0.2 1.1-0.3 2.1-1.1 2.2s-1.5-0.7-1.7-1.8 0.3-2.1 1.1-2.2 1.5 0.7 1.7 1.8z"/>
	</g>
	<g transform="translate(77.79 124.35)">
		<path class="st45" d="m1.4-0.2c0.2 1.1-0.3 2.1-1.1 2.2s-1.5-0.7-1.7-1.8 0.3-2.1 1.1-2.2 1.5 0.7 1.7 1.8z"/>
	</g>
	<g transform="translate(61.155 102.92)">
		<path class="st45" d="m1.4-0.2c0.2 1.1-0.3 2.1-1.1 2.2s-1.5-0.7-1.7-1.8 0.3-2.1 1.1-2.2 1.5 0.7 1.7 1.8z"/>
	</g>
	<g transform="translate(61.155 114.99)">
		<path class="st45" d="m1.4-0.2c0.2 1.1-0.3 2.1-1.1 2.2s-1.5-0.7-1.7-1.8 0.3-2.1 1.1-2.2 1.5 0.7 1.7 1.8z"/>
	</g>
	<g transform="translate(105.78 105.7)">
		<path class="st45" d="m8.5-3.3l-17 10.1v-3.5l17-10.1v3.5z"/>
	</g>
	<g transform="translate(105.78 114.5)">
		<path class="st45" d="m8.5-3.3l-17 10.1v-3.5l17-10.1v3.5z"/>
	</g>
	<g transform="translate(92.941 58.61)">
		<path class="st44" d="m-1.3 11.2l-8.5-5.5 11-17 8.5 5.5-11 17z"/>
	</g>
	<g transform="translate(100.35 47.148)">
		<path class="st44" d="m3.6 3.7l-8.5-5.5 1.3-2 8.5 5.5-1.3 2z"/>
	</g>
	<g transform="translate(102.9 43.2)">
		<path class="st44" d="m3.6 3.7l-8.5-5.5 1.3-2 8.5 5.5-1.3 2z"/>
	</g>
	<g transform="translate(77.27 86.59)">
		<path class="st39" d="m6.3 1.7c-1.6 6-5.8 10-9.2 9.1-3.5-1-5-6.6-3.4-12.5 1.6-6 5.8-10 9.2-9.1 3.5 1 5 6.6 3.4 12.5z"/>
	</g>
	<g transform="translate(79.494 87.779)">
		<path class="st39" d="M0.7-12l4.4,2.4L-0.7,12l-4.4-2.4L0.7-12z"/>
	</g>
	<g transform="translate(81.716 88.968)">
		<path class="st40" d="m6.3 1.7c-1.6 6-5.8 10-9.2 9.1-3.5-1-5-6.6-3.4-12.5 1.6-6 5.8-10 9.2-9.1 3.5 1 5 6.6 3.4 12.5z"/>
	</g>
	<g transform="translate(81.716 88.968)">
		<path class="st36" d="m3.4 0.9c-0.9 3.2-3.1 5.4-5 4.9s-2.7-3.5-1.8-6.7 3.1-5.4 4.9-4.9c1.9 0.5 2.7 3.5 1.9 6.7z"/>
	</g>
	<g transform="translate(53.348 37.061)">
		<path class="st36" d="M3.5-8.8L-8.2-2.1l4.8,10.9L8.2,2.1L3.5-8.8z"/>
	</g>
	<g transform="translate(15.95 52.055)">
		<path class="st39" d="m6.9 1.9c-1.8 6.6-6.3 11-10.2 10s-5.4-7.2-3.6-13.8 6.3-11 10.2-10c3.8 1.1 5.4 7.2 3.6 13.8z"/>
	</g>
	<g transform="translate(8.95 48.406)">
		<path class="st39" d="m6.9 1.9c-1.8 6.6-6.3 11-10.2 10-3.8-1-5.4-7.2-3.7-13.8 1.8-6.6 6.3-11 10.2-10 3.9 1.1 5.5 7.2 3.7 13.8z"/>
	</g>
	<g transform="translate(12.45 50.232)">
		<path class="st39" d="m-0.2-13.7l7 3.6-6.6 23.8-7-3.6 6.6-23.8z"/>
	</g>
	<g transform="translate(45.798 41.162)">
		<path class="st38" d="m7.3-3.2c2.8 6.4 1.8 13-2.3 14.8-4 1.8-9.5-2-12.3-8.4s-1.8-13 2.3-14.8c4-1.8 9.5 2 12.3 8.4z"/>
	</g>
	<g transform="translate(25.474 95.307)">
		<path class="st40" d="M1.6,7.9l-3.2,2V-7.9l3.2-2V7.9z"/>
	</g>
	<g transform="translate(22.838 96.012)">
		<path class="st39" d="M1,9.2L-1,8.7V-9.2L1-8.6V9.2z"/>
	</g>
	<g transform="translate(18.176 93.342)">
		<path class="st40" d="M1.6,7.9l-3.2,2V-7.9l3.2-2V7.9z"/>
	</g>
	<g transform="translate(15.54 94.047)">
		<path class="st39" d="M1,9.2L-1,8.7V-9.2L1-8.6V9.2z"/>
	</g>
	<g transform="translate(20.62 85.86)">
		<path class="st36" d="m8.2 0c0 2.3-3.7 4.2-8.2 4.2s-8.2-1.9-8.2-4.2 3.7-4.2 8.2-4.2 8.2 1.9 8.2 4.2z"/>
	</g>
	<g transform="translate(20.62 81.413)">
		<path class="st36" d="M8.2-4.4H-8.2v8.9H8.2V-4.4z"/>
	</g>
	<g transform="translate(20.621 76.445)">
		<path class="st27" d="M10.3,0c0,2.9-4.6,5.3-10.3,5.3S-10.3,2.9-10.3,0S-5.7-5.3,0-5.3S10.3-2.9,10.3,0z"/>
	</g>
	<g transform="translate(20.621 69.801)">
		<path class="st27" d="M10.3-6.6h-20.5V6.6h20.5V-6.6z"/>
	</g>
	<g transform="translate(20.621 63.155)">
		<path class="st37" d="m10.3 0c0 2.9-4.6 5.3-10.3 5.3s-10.3-2.4-10.3-5.3 4.6-5.3 10.3-5.3 10.3 2.4 10.3 5.3z"/>
	</g>
	<g transform="translate(33.561 48.323)">
		<path class="st38" d="M-17.3-4.4L7.2-18.7L17.3,4.4L-7.1,18.7L-17.3-4.4z"/>
	</g>
	<g transform="translate(21.325 55.483)">
		<path class="st25" d="m7.3-3.2c2.8 6.4 1.8 13-2.3 14.8-4 1.8-9.5-2-12.3-8.4s-1.8-13 2.3-14.8c4-1.8 9.5 2 12.3 8.4z"/>
	</g>
	<g transform="translate(25.928 57.07)">
		<path class="st39" d="m6.9 1.9c-1.8 6.6-6.3 11-10.2 10-3.8-1-5.4-7.2-3.7-13.8 1.8-6.6 6.3-11 10.2-10 3.9 1.1 5.5 7.2 3.7 13.8z"/>
	</g>
	<g transform="translate(29.428 58.895)">
		<path class="st39" d="m-0.2-13.7l7 3.6-6.6 23.8-7-3.6 6.6-23.8z"/>
	</g>
	<g transform="translate(32.928 60.719)">
		<path class="st40" d="m6.9 1.9c-1.8 6.6-6.3 11-10.2 10-3.8-1-5.4-7.2-3.7-13.8 1.8-6.6 6.3-11 10.2-10 3.9 1.1 5.5 7.2 3.7 13.8z"/>
	</g>
	<g transform="translate(32.928 60.72)">
		<path class="st36" d="m3.7 1c-1 3.5-3.4 5.9-5.4 5.4s-2.9-3.9-2-7.4c1-3.5 3.4-5.9 5.4-5.4 2.1 0.6 3 3.9 2 7.4z"/>
	</g>
</g>
<g transform="matrix(.5 0 0 .5 635.72 468.48)">
	<path class="st35" d="m199.4 233.1l-199.1-115.2v-12l199.2 115.2v12zm73.3-43.3l-73.2 43.4v-12l73.2-43.4v12zm0-12l-199.2-115.2-73.2 43.3 199.2 115.2 73.2-43.3zm-206.5-43.9l-30.2-16.8v-3.9l30.2 16.7v4zm30.7-18.1l-30.8 18v-4l30.8-18v4zm-60.9-2.6l30.2 16.7 30.8-18-30.2-16.7-30.8 18zm18.4 10.2l-18.4-10.2v-18.7l18.4 10.2v18.7zm30.6-18.2l-30.6 18.1v-18.7l30.6-18v18.6zm-14.1 17.7c0 1.2-2 2.2-4.4 2.2s-4.4-1-4.4-2.2 2-2.2 4.4-2.2 4.4 1 4.4 2.2zm132.9 88.8c0 1.2-2 2.2-4.4 2.2s-4.4-1-4.4-2.2 2-2.2 4.4-2.2c2.5 0 4.4 1 4.4 2.2zm-187.3-106.4c0 1.2-2 2.2-4.4 2.2s-4.4-1-4.4-2.2 2-2.2 4.4-2.2 4.4 1 4.4 2.2zm247.6 71.8c0 1.2-2 2.2-4.4 2.2s-4.4-1-4.4-2.2 2-2.2 4.4-2.2 4.4 1 4.4 2.2zm-174.7-65.2c0 1.2-2 2.2-4.4 2.2s-4.4-1-4.4-2.2 2-2.2 4.4-2.2 4.4 1 4.4 2.2zm-36.4-3s-2.1 1.5-11.5-3.2-14.4-9.1-14.4-9.1-6.1-7.3-5-20.9c1-13.6 6.8-22.8 10.4-28.7s8.2-11.3 10.5-16.2 0.7-15.7 0.7-15.7l30.8-2.6v77.7l-21.5 18.7zm8.2-1.7c-12.4 6-20.2-3.8-20.2-3.8s-6.1-7.3-5-20.9c1-13.6 6.8-22.8 10.4-28.7 3.7-5.9 8.2-11.3 10.5-16.2s0.7-15.7 0.7-15.7l20.3-5.8-0.6 17.6s16.9 3.1 16.9 23.5c0 8.3-2.1 29.4-11.7 37.3-4.8 3.9-11.9 8-21.3 12.7zm20.4-90.3c0 6.8-9.5 12.4-21.2 12.4s-21.2-5.5-21.2-12.4c0-6.8 9.5-12.4 21.2-12.4s21.2 5.5 21.2 12.4zm-42.5-4.3h42.5v4.6h-42.5v-4.6zm42.5 0c0 6.8-9.5 12.4-21.2 12.4s-21.2-5.5-21.2-12.4 9.4-12.3 21.1-12.3 21.3 5.5 21.3 12.3zm-6.4 0c0 4.8-6.7 8.7-14.9 8.7s-14.9-3.9-14.9-8.7 6.7-8.7 14.9-8.7 14.9 3.9 14.9 8.7zm12.2 66.5c7.7-15.8 5.5-32.7-4.8-37.7s-24.8 3.8-32.5 19.7c-7.7 15.8-5.5 32.7 4.8 37.7s24.8-3.9 32.5-19.7zm2.1 1.6c7.7-15.9 5.5-32.7-4.8-37.7s-24.8 3.8-32.5 19.7c-7.7 15.8-5.5 32.7 4.8 37.7 10.3 4.9 24.9-3.9 32.5-19.7zm-1.8-0.7c6.2-12.9 4.5-26.6-3.9-30.6s-20.2 3.1-26.4 16-4.5 26.6 3.9 30.6c8.3 4.1 20.2-3.1 26.4-16zm-1.9-1.1c5.3-10.9 3.8-22.6-3.3-26s-17.1 2.7-22.4 13.6-3.8 22.6 3.3 26 17.2-2.7 22.4-13.6zm28 6.2l1.9 15.7-11.1 4.1-12.7 6.5-20.9-11.4v-17.4c0.2-2.9 0.9-6 2.4-9 4.1-8.5 11.9-13.2 17.4-10.5l0.6 0.3 20.5 11.1 1.9 10.6zm-30.5 5.2c1.7 2.9 1.5 6.1-0.4 7.2s-4.7-0.4-6.4-3.3-1.5-6.1 0.3-7.2c2-1 4.8 0.5 6.5 3.3zm21.7-19.5s-1.5-0.4-3.8 0.2c-8.8 2.5-13.1 12.2-13.1 12.2l-10.4-5.2s4.3-11 12.7-12.8c2.5-0.5 4.4 0 4.4 0m6.2 73.1l-9.1-4.8v-3.9l9.1 4.8v3.9zm23.8-13.8l-23.8 13.8v-3.9l23.8-13.8v3.9zm-9.2-8.8l-23.8 13.7v-34.5l23.8-13.8v34.6zm9.2 4.9l-9.1-4.9-23.8 13.7 9.1 4.9 23.8-13.7zm-10.5-25.9c4.1-8.5 3-17.5-2.6-20.2-5.5-2.7-13.3 2.1-17.4 10.5-4.1 8.5-3 17.5 2.5 20.2 5.7 2.7 13.4-2 17.5-10.5zm0.3-18.8l-2.8-1.4-14.8 30.7 2.8 1.4 14.8-30.7zm2.6 20.1c4.1-8.5 3-17.5-2.5-20.2s-13.3 2.1-17.4 10.5c-4.1 8.5-3 17.5 2.5 20.2s13.3-2 17.4-10.5zm-6.8-2.6c1.1-2.3 0.8-4.7-0.7-5.5-1.5-0.7-3.6 0.6-4.7 2.8-1.1 2.3-0.8 4.8 0.7 5.5 1.5 0.8 3.6-0.5 4.7-2.8zm-2.3-10.7c0.7-1.4 0.5-2.9-0.4-3.3-0.9-0.5-2.2 0.3-2.9 1.7s-0.5 2.9 0.4 3.3c0.9 0.5 2.2-0.3 2.9-1.7zm7-0.9c0.7-1.4 0.5-2.9-0.4-3.4-0.9-0.4-2.2 0.3-2.9 1.8-0.7 1.4-0.5 2.9 0.4 3.4 1 0.4 2.2-0.4 2.9-1.8zm2.1 6.8c0.7-1.4 0.5-2.9-0.4-3.4-0.9-0.4-2.2 0.4-2.9 1.8s-0.5 2.9 0.4 3.4c0.9 0.3 2.2-0.4 2.9-1.8zm-2.1 8.1c0.7-1.4 0.5-2.9-0.4-3.4-0.9-0.4-2.2 0.3-2.9 1.8-0.7 1.4-0.5 2.9 0.4 3.4 1 0.4 2.2-0.4 2.9-1.8zm-5.4 5.3c0.7-1.4 0.5-2.9-0.4-3.3s-2.2 0.3-2.9 1.8c-0.7 1.4-0.5 2.9 0.4 3.3 1 0.4 2.3-0.4 2.9-1.8zm-6.8 0.6c0.7-1.4 0.5-2.9-0.4-3.3s-2.2 0.3-2.9 1.8c-0.7 1.4-0.5 2.9 0.4 3.3s2.2-0.4 2.9-1.8zm-2.5-6.4c0.7-1.4 0.5-2.9-0.4-3.3s-2.2 0.3-2.9 1.7-0.5 2.9 0.4 3.4c0.9 0.4 2.2-0.4 2.9-1.8zm2.5-7.6c0.7-1.4 0.5-2.9-0.4-3.4-0.9-0.4-2.2 0.4-2.9 1.8s-0.5 2.9 0.4 3.4c0.9 0.3 2.2-0.4 2.9-1.8zm6.3 4.2c0.5-1 0.4-2.1-0.3-2.5-0.7-0.3-1.6 0.2-2.1 1.3-0.5 1-0.4 2.1 0.3 2.5 0.6 0.3 1.6-0.3 2.1-1.3zm-0.4-2.5l10.6 5.9-2.1 3.4-10.3-5.5 1.8-3.8zm10.5 8.4c1.3-2.8 1-5.7-0.8-6.6s-4.3 0.7-5.7 3.4c-1.3 2.8-1 5.7 0.8 6.6s4.4-0.6 5.7-3.4zm-0.8-6.6l7.9 3.8-4.8 10-7.9-3.8 4.8-10zm8.7 10.4c1.3-2.8 1-5.7-0.8-6.6s-4.3 0.7-5.7 3.4c-1.3 2.8-1 5.7 0.8 6.6s4.4-0.6 5.7-3.4zm-2-1c0.5-1 0.4-2.1-0.3-2.5-0.7-0.3-1.6 0.2-2.1 1.3s-0.4 2.1 0.3 2.5c0.6 0.3 1.6-0.2 2.1-1.3zm-0.4-2.4l10.6 5.9-2.1 3.4-10.3-5.6 1.8-3.7zm-21 30.1c0 0.8-1.2 1.4-2.8 1.4s-2.8-0.6-2.8-1.4 1.2-1.4 2.8-1.4 2.8 0.7 2.8 1.4zm14.6-8.5c0 0.8-1.2 1.4-2.8 1.4s-2.8-0.6-2.8-1.4 1.2-1.4 2.8-1.4 2.8 0.6 2.8 1.4zm62.6 83.4l-67.5-38.8v-16.5l67.5 38.8v16.5zm26.7-28.2l-26.7 14.1v-2.4l26.8-14.1v2.4zm-24.2 12.7l-2.5 1.4v14.1l2.6-1.4v-14.1zm-70-39.8l35.8-19.5 74.4 35.8-42.7 22.5-67.5-38.8zm51.3-24.4c7.6-15.8 5.5-32.6-4.8-37.6s-24.8 3.8-32.4 19.6-5.5 32.6 4.8 37.6c10.2 5 24.7-3.8 32.4-19.6zm54.5-5.3l-59.3-32.3-27.6 57.2 59.2 32.3 27.7-57.2zm-48.4-26.3c-10.3-5-24.8 3.8-32.4 19.6s-5.5 32.7 4.8 37.6m52.8 36.8l-18.4-10.2v-45.1l18.4 10.2v45.1zm39.1-67.7l-18.4-10.2-39.2 22.7 18.4 10.2 39.2-22.7zv44.9l-39.2 22.8v-45.1l39.2-22.6zm-2.9 42.1c6.3-13 4.5-26.9-3.9-31-8.5-4.1-20.4 3.2-26.7 16.2s-4.5 26.9 3.9 31c8.5 4.1 20.4-3.1 26.7-16.2zm-3.9-30.9l8 3.9-22.8 47.1-8-3.9 22.8-47.1zm11.6 34.7c6.3-13 4.5-26.9-3.9-31-8.5-4.1-20.4 3.1-26.7 16.2-6.3 13-4.5 26.9 3.9 31 8.4 4 20.4-3.2 26.7-16.2zm-2.8-1.4c3.7-7.8 2.7-16-2.3-18.4s-12.1 1.9-15.9 9.6-2.7 16 2.3 18.4 12.1-1.8 15.9-9.6z"/>
	<g transform="translate(99.839 169.54)">
		<path class="st27" d="M99.6,63.6L-99.6-51.6v-12L99.6,51.6V63.6z"/>
	</g>
	<g transform="translate(236.05 205.45)">
		<path class="st38" d="m36.6-15.7l-73.3 43.4v-12l73.3-43.4v12z"/>
	</g>
	<g transform="translate(136.46 141.85)">
		<path class="st25" d="M136.2,35.9L-63-79.3l-73.3,43.4L63,79.3L136.2,35.9z"/>
	</g>
	<g transform="translate(51.09 123.52)">
		<path class="st27" d="M15.1,10.3L-15.1-6.4v-3.9L15.1,6.4V10.3z"/>
	</g>
	<g transform="translate(81.558 122.88)">
		<path class="st38" d="m15.4-7l-30.8 18v-4l30.8-18v4z"/>
	</g>
	<g transform="translate(66.469 112.54)">
		<path class="st25" d="m-30.5 0.6l30.2 16.7 30.8-18-30.2-16.7-30.8 18z"/>
	</g>
	<g transform="translate(45.195 108.93)">
		<path class="st27" d="M9.2,14.4L-9.2,4.3v-18.7L9.2-4.3V14.4z"/>
	</g>
	<g transform="translate(69.686 104.96)">
		<path class="st36" d="M15.3,0.3l-30.6,18.1V-0.3l30.6-18.1V0.3z"/>
	</g>
	<g transform="translate(66.469 122.88)">
		<path class="st41" d="m4.4 0c0 1.2-2 2.2-4.4 2.2s-4.4-1-4.4-2.2 2-2.2 4.4-2.2 4.4 1 4.4 2.2z"/>
	</g>
	<g transform="translate(199.43 211.74)">
		<path class="st41" d="m4.4 0c0 1.2-2 2.2-4.4 2.2s-4.4-1-4.4-2.2 2-2.2 4.4-2.2 4.4 1 4.4 2.2z"/>
	</g>
	<g transform="translate(12.09 105.27)">
		<path class="st41" d="m4.4 0c0 1.2-2 2.2-4.4 2.2s-4.4-1-4.4-2.2 2-2.2 4.4-2.2 4.4 1 4.4 2.2z"/>
	</g>
	<g transform="translate(259.72 177.1)">
		<path class="st41" d="m4.4 0c0 1.2-2 2.2-4.4 2.2s-4.4-1-4.4-2.2 2-2.2 4.4-2.2 4.4 1 4.4 2.2z"/>
	</g>
	<g transform="translate(84.982 111.9)">
		<path class="st41" d="m4.4 0c0 1.2-2 2.2-4.4 2.2s-4.4-1-4.4-2.2 2-2.2 4.4-2.2 4.4 1 4.4 2.2z"/>
	</g>
	<g transform="translate(47.694 61.535)">
		<path class="st25" d="m5.3 47.4s-2.1 1.5-11.5-3.2-14.5-9.1-14.5-9.1-6.1-7.3-5-20.9c1-13.6 6.8-22.8 10.4-28.7 3.7-5.9 8.2-11.3 10.4-16.2 2.3-4.9 0.7-15.7 0.7-15.7l30.8-2.6v77.7l-21.3 18.7z"/>
	</g>
	<g transform="translate(64.482 64.649)">
		<path class="st38" d="m-3.3 42.5c-12.4 6-20.2-3.8-20.2-3.8s-6.1-7.3-5-20.9c1-13.6 6.8-22.8 10.4-28.7 3.7-5.9 8.2-11.3 10.4-16.2s0.7-15.6 0.7-15.6l20.3-5.8-0.6 17.5s16.9 3.1 16.9 23.5c0 8.3-2.1 29.4-11.7 37.3-4.7 4-11.7 8.1-21.2 12.7z"/>
	</g>
	<g transform="translate(60.317 16.855)">
		<path class="st27" d="M21.2,0c0,6.8-9.5,12.4-21.2,12.4S-21.2,6.8-21.2,0S-11.7-12.4,0-12.4S21.2-6.8,21.2,0z"/>
	</g>
	<g transform="translate(60.317 14.918)">
		<path class="st27" d="m-21.2-2.3h42.5v4.6h-42.5v-4.6z"/>
	</g>
	<g transform="translate(60.317 12.612)">
		<path class="st25" d="M21.2,0c0,6.8-9.5,12.4-21.2,12.4S-21.2,6.8-21.2,0S-11.7-12.4,0-12.4S21.2-6.8,21.2,0z"/>
	</g>
	<g transform="translate(60.317 12.611)">
		<path class="st36" d="m14.9 0c0 4.8-6.7 8.7-14.9 8.7s-14.9-3.9-14.9-8.7 6.7-8.7 14.9-8.7 14.9 3.9 14.9 8.7z"/>
	</g>
	<g transform="translate(68.761 70.083)">
		<path class="st38" d="m18.6 9c7.7-15.8 5.5-32.7-4.8-37.7-10.2-5-24.8 3.9-32.4 19.7-7.7 15.8-5.5 32.7 4.8 37.7 10.2 5 24.8-3.9 32.4-19.7z"/>
	</g>
	<g transform="translate(70.879 71.687)">
		<path class="st36" d="m18.6 9c7.7-15.8 5.5-32.7-4.8-37.7-10.2-5-24.8 3.9-32.4 19.7-7.7 15.8-5.5 32.7 4.8 37.7 10.2 5 24.8-3.9 32.4-19.7z"/>
	</g>
	<g transform="translate(72.534 72.705)">
		<path class="st41" d="m15.1 7.3c6.2-12.9 4.5-26.6-3.9-30.6s-20.2 3.1-26.4 16-4.5 26.6 3.9 30.6c8.4 4.1 20.2-3.1 26.4-16z"/>
	</g>
	<g transform="translate(72.987 72.704)">
		<path class="st27" d="m12.9 6.2c5.3-10.9 3.8-22.6-3.3-26s-17.2 2.7-22.5 13.6-3.8 22.6 3.3 26 17.2-2.7 22.5-13.6z"/>
	</g>
	<g transform="translate(93.278 85.912)">
		<path class="st39" d="m20.5-0.8l1.9 15.7-11.1 4.1-12.7 6.5-20.9-11.4v-17.4c0.2-2.9 0.9-6 2.4-9 4.1-8.5 11.9-13.2 17.4-10.5l0.6 0.3 20.5 11.1 1.9 10.6z"/>
	</g>
	<g transform="translate(79.933 92.294)">
		<path class="st45" d="M3.4-1.9C5,0.9,4.9,4.2,3,5.2C1.2,6.3-1.7,4.8-3.4,1.9C-5-0.9-4.9-4.2-3-5.2C-1.2-6.3,1.7-4.8,3.4-1.9z"/>
	</g>
	<g transform="translate(91.411 74.047)">
		<path class="st46" d="m13.6-3.2s-1.5-0.4-3.7 0.2c-8.8 2.5-13.1 12.2-13.1 12.2l-10.4-5.1s4.3-11 12.7-12.8c2.5-0.5 4.4 0 4.4 0"/>
	</g>
	<g transform="translate(96.409 133.93)">
		<path class="st27" d="m4.6 4.4l-9.1-4.8v-3.9l9.1 4.8v3.9z"/>
	</g>
	<g transform="translate(112.87 129.43)">
		<path class="st38" d="m11.9-4.9l-23.8 13.8v-4l23.8-13.8v4z"/>
	</g>
	<g transform="translate(103.74 105.27)">
		<path class="st36" d="m11.9 10.4l-23.8 13.8v-34.6l23.8-13.8v34.6z"/>
	</g>
	<g transform="translate(108.31 125.01)">
		<path class="st25" d="M16.5-4.4L7.3-9.3L-16.5,4.4l9.1,4.9L16.5-4.4z"/>
	</g>
	<g transform="translate(104.37 89.852)">
		<path class="st38" d="m10 4.8c4.1-8.5 3-17.5-2.6-20.2-5.5-2.6-13.3 2.1-17.4 10.6s-3 17.5 2.6 20.2c5.5 2.6 13.3-2.1 17.4-10.6z"/>
	</g>
	<g transform="translate(105.79 90.54)">
		<path class="st38" d="M8.8-14.7L6-16L-8.8,14.7L-6,16L8.8-14.7z"/>
	</g>
	<g transform="translate(107.2 91.222)">
		<path class="st40" d="M10,4.8c4.1-8.5,3-17.5-2.6-20.2C1.9-18-5.9-13.3-10-4.8s-3,17.5,2.6,20.2C-1.9,18,5.9,13.3,10,4.8z"/>
	</g>
	<g transform="translate(107.74 92.117)">
		<path class="st27" d="m2.7 1.3c1.1-2.3 0.8-4.7-0.7-5.5-1.5-0.7-3.6 0.6-4.7 2.9s-0.8 4.7 0.7 5.5c1.5 0.7 3.6-0.6 4.7-2.9z"/>
	</g>
	<g transform="translate(106.43 81.914)">
		<path class="st45" d="m1.7 0.8c0.7-1.4 0.5-2.9-0.4-3.3-1-0.5-2.3 0.3-3 1.7s-0.5 2.9 0.4 3.3c1 0.5 2.3-0.3 3-1.7z"/>
	</g>
	<g transform="translate(113.48 80.996)">
		<path class="st45" d="m1.7 0.8c0.7-1.4 0.5-2.9-0.4-3.3s-2.3 0.3-3 1.7-0.5 2.9 0.4 3.3c1 0.5 2.3-0.3 3-1.7z"/>
	</g>
	<g transform="translate(115.54 87.753)">
		<path class="st45" d="m1.7 0.8c0.7-1.4 0.5-2.9-0.4-3.3-1-0.5-2.3 0.3-3 1.7s-0.5 2.9 0.4 3.3c1 0.5 2.3-0.3 3-1.7z"/>
	</g>
	<g transform="translate(113.48 95.891)">
		<path class="st45" d="m1.7 0.8c0.7-1.4 0.5-2.9-0.4-3.3s-2.3 0.3-3 1.7-0.5 2.9 0.4 3.3c1 0.5 2.3-0.3 3-1.7z"/>
	</g>
	<g transform="translate(108.08 101.22)">
		<path class="st45" d="m1.7 0.8c0.7-1.4 0.5-2.9-0.4-3.3-1-0.5-2.3 0.3-3 1.7s-0.5 2.9 0.4 3.3c1 0.5 2.3-0.3 3-1.7z"/>
	</g>
	<g transform="translate(101.23 101.78)">
		<path class="st45" d="m1.7 0.8c0.7-1.4 0.5-2.9-0.4-3.3-1-0.5-2.3 0.3-3 1.7s-0.5 2.9 0.4 3.3c1 0.5 2.3-0.3 3-1.7z"/>
	</g>
	<g transform="translate(98.703 95.395)">
		<path class="st45" d="m1.7 0.8c0.7-1.4 0.5-2.9-0.4-3.3-1-0.5-2.3 0.3-3 1.7s-0.5 2.9 0.4 3.3c1 0.5 2.3-0.3 3-1.7z"/>
	</g>
	<g transform="translate(101.23 87.753)">
		<path class="st45" d="m1.7 0.8c0.7-1.4 0.5-2.9-0.4-3.3-1-0.5-2.3 0.3-3 1.7s-0.5 2.9 0.4 3.3c1 0.5 2.3-0.3 3-1.7z"/>
	</g>
	<g transform="translate(107.94 92.207)">
		<path class="st36" d="m1.2 0.6c0.5-1 0.4-2.1-0.3-2.5-0.7-0.3-1.6 0.3-2.1 1.3s-0.4 2.1 0.3 2.5 1.6-0.3 2.1-1.3z"/>
	</g>
	<g transform="translate(113.24 94.99)">
		<path class="st36" d="m-4.4-4.7l10.6 5.9-2.1 3.5-10.3-5.6 1.8-3.8z"/>
	</g>
	<g transform="translate(116.07 97.148)">
		<path class="st27" d="m3.3 1.6c1.3-2.8 1-5.7-0.8-6.6s-4.3 0.7-5.7 3.4c-1.3 2.8-1 5.7 0.8 6.6s4.3-0.7 5.7-3.4z"/>
	</g>
	<g transform="translate(120.01 99.048)">
		<path class="st27" d="m-1.5-6.9l7.9 3.8-4.8 10-7.9-3.8 4.8-10z"/>
	</g>
	<g transform="translate(123.94 100.95)">
		<path class="st40" d="m3.3 1.6c1.3-2.8 1-5.7-0.8-6.6-1.9-0.9-4.4 0.7-5.7 3.4-1.3 2.8-1 5.7 0.8 6.6s4.3-0.7 5.7-3.4z"/>
	</g>
	<g transform="translate(123.94 100.95)">
		<path class="st36" d="m1.2 0.6c0.5-1 0.4-2.1-0.3-2.5-0.7-0.3-1.6 0.3-2.1 1.3s-0.4 2.1 0.3 2.5c0.7 0.3 1.6-0.3 2.1-1.3z"/>
	</g>
	<g transform="translate(129.24 103.73)">
		<path class="st36" d="m-4.4-4.7l10.6 5.9-2.1 3.5-10.3-5.6 1.8-3.8z"/>
	</g>
	<g transform="translate(100.97 129.26)">
		<path class="st41" d="m2.8 0c0 0.8-1.2 1.4-2.8 1.4-1.5 0-2.8-0.6-2.8-1.4s1.3-1.4 2.8-1.4 2.8 0.6 2.8 1.4z"/>
	</g>
	<g transform="translate(115.64 120.67)">
		<path class="st41" d="m2.8 0c0 0.8-1.2 1.4-2.8 1.4-1.5 0-2.8-0.6-2.8-1.4s1.3-1.4 2.8-1.4 2.8 0.6 2.8 1.4z"/>
	</g>
	<g transform="translate(147.22 176.45)">
		<path class="st27" d="m33.7 27.7l-67.5-38.8v-16.5l67.5 38.8v16.5z"/>
	</g>
	<g transform="translate(194.35 181.74)">
		<path class="st38" d="M13.4-5.8L-13.4,8.3V5.8L13.4-8.3V-5.8z"/>
	</g>
	<g transform="translate(182.26 196.38)">
		<path class="st38" d="m1.3-7.7l-2.6 1.4v14l2.6-1.4v-14z"/>
	</g>
	<g transform="translate(168.58 158.42)">
		<path class="st25" d="M-55.1-9.7l35.8-19.5L55.1,6.6L12.4,29.2L-55.1-9.7z"/>
	</g>
	<g transform="translate(146.19 115.4)">
		<path class="st38" d="m18.6 9c7.6-15.8 5.5-32.6-4.8-37.6-10.2-5-24.8 3.8-32.4 19.6s-5.5 32.6 4.8 37.6c10.2 5 24.8-3.8 32.4-19.6z"/>
	</g>
	<g transform="translate(175.81 131.57)">
		<path class="st38" d="m43.5-12.4l-59.2-32.4-27.7 57.2 59.2 32.4 27.7-57.2z"/>
	</g>
	<g transform="translate(150.9 118.96)">
		<path class="st46" d="m20-26.1c-10.3-5-24.8 3.8-32.4 19.6s-5.5 32.6 4.8 37.6"/>
	</g>
	<g transform="translate(186.85 159.2)">
		<path class="st27" d="m9.2 27.6l-18.4-10.2v-45.1l18.4 10.3v45z"/>
	</g>
	<g transform="translate(206.45 125.34)">
		<path class="st25" d="M28.8-6.2L10.4-16.4L-28.8,6.2l18.4,10.2L28.8-6.2z"/>
	</g>
	<g transform="translate(215.65 152.97)">
		<path class="st38" d="m19.6-33.9v44.9l-39.2 22.8v-45.1l39.2-22.6z"/>
	</g>
	<g transform="translate(217 153.85)">
		<path class="st36" d="m15.3 7.4c6.3-13 4.5-26.9-3.9-31-8.5-4-20.4 3.2-26.7 16.2s-4.5 26.9 3.9 31c8.5 4 20.4-3.2 26.7-16.2z"/>
	</g>
	<g transform="translate(221.02 155.79)">
		<path class="st36" d="m7.4-25.5l8 3.9-22.8 47.1-8-3.9 22.8-47.1z"/>
	</g>
	<g transform="translate(224.67 157.56)">
		<path class="st38" d="m15.3 7.4c6.3-13 4.5-26.9-3.9-31-8.5-4-20.4 3.2-26.7 16.2s-4.5 26.9 3.9 31c8.5 4 20.4-3.2 26.7-16.2z"/>
	</g>
	<g transform="translate(228.07 159.2)">
		<path class="st41" d="m9.1 4.4c3.7-7.7 2.7-16-2.3-18.4s-12.2 1.9-15.9 9.6-2.7 16 2.3 18.4c5.1 2.4 12.2-1.9 15.9-9.6z"/>
	</g>
</g>
</svg>
